<svg xmlns = "http://www.w3.org/2000/svg" width = "1000" height = "1000">
<g>
<polygon points = "16.171, 767.883 57.516, 892.166 40.460, 924.545 0.000, 924.727 0.000, 757.598 "
fill = "none" stroke = "black"/>
</g>
<g>
<polygon points = "781.426, 624.685 783.787, 569.083 801.854, 517.499 836.614, 537.336 823.733, 643.487 787.596, 638.077 "
fill = "none" stroke = "black"/>
</g>
<g>
<polygon points = "526.311, 817.784 520.935, 818.537 518.741, 817.523 539.025, 813.586 "
fill = "none" stroke = "black"/>
</g>
<g>
<polygon points = "9.244, 371.305 42.437, 263.401 94.131, 229.720 102.537, 263.751 45.130, 367.124 "
fill = "none" stroke = "black"/>
</g>
<g>
<polygon points = "730.209, 70.757 657.161, 71.596 639.608, 54.859 639.383, 50.087 651.017, 0.000 713.045, 0.000 "
fill = "none" stroke = "black"/>
</g>
<g>
<polygon points = "317.107, 351.805 288.512, 538.242 253.003, 542.900 235.492, 534.035 209.406, 396.075 251.749, 351.229 268.451, 341.460 "
fill = "none" stroke = "black"/>
</g>
<g>
<polygon points = "812.000, 954.212 810.943, 953.038 807.497, 888.226 863.979, 886.267 888.795, 960.970 "
fill = "none" stroke = "black"/>
</g>
<g>
<polygon points = "84.220, 434.537 95.586, 445.162 95.921, 445.962 94.848, 522.220 52.146, 540.668 0.000, 517.867 0.000, 430.876 "
fill = "none" stroke = "black"/>
</g>
<g>
<polygon points = "574.547, 975.285 690.401, 940.289 700.043, 1000.000 564.375, 1000.000 "
fill = "none" stroke = "black"/>
</g>
<g>
<polygon points = "340.598, 986.913 349.959, 901.574 380.339, 894.212 417.022, 915.233 416.568, 937.243 344.943, 1000.000 342.695, 1000.000 "
fill = "none" stroke = "black"/>
</g>
<g>
<polygon points = "447.753, 239.626 443.628, 255.802 420.628, 271.809 326.529, 253.655 335.628, 204.382 339.570, 196.275 363.549, 195.437 "
fill = "none" stroke = "black"/>
</g>
<g>
<polygon points = "566.018, 46.762 639.383, 50.087 639.608, 54.859 609.890, 82.581 576.899, 75.073 573.462, 72.095 "
fill = "none" stroke = "black"/>
</g>
<g>
<polygon points = "816.723, 467.820 862.033, 417.974 876.394, 421.064 871.611, 519.293 864.741, 537.223 861.817, 538.408 849.618, 527.676 816.788, 474.509 "
fill = "none" stroke = "black"/>
</g>
<g>
<polygon points = "113.317, 277.734 103.987, 399.365 100.174, 402.228 45.130, 367.124 102.537, 263.751 "
fill = "none" stroke = "black"/>
</g>
<g>
<polygon points = ""
fill = "none" stroke = "black"/>
</g>
<g>
<polygon points = "916.934, 263.409 861.366, 214.404 859.461, 198.776 864.247, 169.296 914.556, 151.806 944.803, 173.140 "
fill = "none" stroke = "black"/>
</g>
<g>
<polygon points = "219.862, 944.050 237.770, 934.512 246.055, 935.219 340.598, 986.913 342.695, 1000.000 249.393, 1000.000 "
fill = "none" stroke = "black"/>
</g>
<g>
<polygon points = "839.295, 649.252 820.231, 705.679 731.146, 726.916 723.268, 719.089 778.537, 640.439 787.596, 638.077 823.733, 643.487 "
fill = "none" stroke = "black"/>
</g>
<g>
<polygon points = "659.169, 240.217 622.312, 222.989 660.602, 213.959 "
fill = "none" stroke = "black"/>
</g>
<g>
<polygon points = "912.954, 690.746 900.929, 685.651 894.701, 674.200 938.816, 631.480 1000.000, 620.587 1000.000, 693.241 "
fill = "none" stroke = "black"/>
</g>
<g>
<polygon points = "250.105, 73.047 206.754, 41.818 207.273, 0.000 296.617, 0.000 "
fill = "none" stroke = "black"/>
</g>
<g>
<polygon points = "709.488, 206.937 745.221, 183.941 766.849, 233.817 765.931, 242.108 720.245, 264.284 710.287, 257.728 "
fill = "none" stroke = "black"/>
</g>
<g>
<polygon points = "575.691, 950.647 597.714, 915.027 624.775, 880.827 646.669, 870.214 698.675, 926.363 690.401, 940.289 574.547, 975.285 "
fill = "none" stroke = "black"/>
</g>
<g>
<polygon points = "689.496, 135.635 687.821, 137.947 622.604, 127.576 615.336, 119.320 609.890, 82.581 639.608, 54.859 657.161, 71.596 "
fill = "none" stroke = "black"/>
</g>
<g>
<polygon points = "204.651, 575.500 213.070, 616.201 180.520, 610.946 179.536, 607.444 189.936, 545.578 "
fill = "none" stroke = "black"/>
</g>
<g>
<polygon points = "811.396, 474.946 816.788, 474.509 849.618, 527.676 836.614, 537.336 801.854, 517.499 "
fill = "none" stroke = "black"/>
</g>
<g>
<polygon points = "189.361, 748.818 175.653, 731.613 180.283, 725.436 275.470, 711.560 294.611, 736.676 290.206, 764.383 263.867, 777.865 "
fill = "none" stroke = "black"/>
</g>
<g>
<polygon points = "313.618, 868.639 313.180, 867.159 319.975, 825.744 355.533, 830.400 392.553, 860.676 380.339, 894.212 349.959, 901.574 "
fill = "none" stroke = "black"/>
</g>
<g>
<polygon points = "499.585, 57.786 511.021, 91.552 508.276, 118.557 417.827, 115.676 413.571, 110.034 "
fill = "none" stroke = "black"/>
</g>
<g>
<polygon points = "889.997, 853.588 903.460, 865.172 928.553, 938.552 909.300, 996.919 888.795, 960.970 863.979, 886.267 "
fill = "none" stroke = "black"/>
</g>
<g>
<polygon points = "956.633, 441.926 944.411, 536.945 942.842, 538.234 909.721, 553.292 864.741, 537.223 871.611, 519.293 "
fill = "none" stroke = "black"/>
</g>
<g>
<polygon points = ""
fill = "none" stroke = "black"/>
</g>
<g>
<polygon points = "944.411, 536.945 956.633, 441.926 959.007, 434.224 1000.000, 423.803 1000.000, 539.122 "
fill = "none" stroke = "black"/>
</g>
<g>
<polygon points = "253.457, 887.692 305.754, 872.269 246.055, 935.219 237.770, 934.512 "
fill = "none" stroke = "black"/>
</g>
<g>
<polygon points = "928.553, 938.552 903.460, 865.172 1000.000, 913.966 1000.000, 959.034 "
fill = "none" stroke = "black"/>
</g>
<g>
<polygon points = "460.632, 817.286 457.488, 815.350 450.032, 810.434 455.658, 772.596 555.456, 809.726 539.025, 813.586 518.741, 817.523 "
fill = "none" stroke = "black"/>
</g>
<g>
<polygon points = "253.742, 81.096 253.863, 77.761 360.104, 57.996 364.070, 85.640 342.347, 126.197 "
fill = "none" stroke = "black"/>
</g>
<g>
<polygon points = ""
fill = "none" stroke = "black"/>
</g>
<g>
<polygon points = "910.269, 1000.000 909.300, 996.919 928.553, 938.552 1000.000, 959.034 1000.000, 1000.000 "
fill = "none" stroke = "black"/>
</g>
<g>
<polygon points = "747.618, 177.548 757.108, 169.017 793.290, 209.677 766.849, 233.817 745.221, 183.941 "
fill = "none" stroke = "black"/>
</g>
<g>
<polygon points = "889.051, 847.589 889.997, 853.588 863.979, 886.267 807.497, 888.226 779.223, 880.443 780.774, 845.792 "
fill = "none" stroke = "black"/>
</g>
<g>
<polygon points = "42.437, 263.401 9.244, 371.305 0.000, 375.461 0.000, 241.534 "
fill = "none" stroke = "black"/>
</g>
<g>
<polygon points = "815.374, 382.691 815.381, 356.733 851.590, 324.975 922.859, 384.305 923.961, 412.974 876.394, 421.064 862.033, 417.974 "
fill = "none" stroke = "black"/>
</g>
<g>
<polygon points = "766.607, 243.593 771.403, 336.189 770.257, 336.521 734.951, 294.225 720.245, 264.284 765.931, 242.108 "
fill = "none" stroke = "black"/>
</g>
<g>
<polygon points = "944.803, 173.140 914.556, 151.806 914.851, 124.542 946.526, 99.138 1000.000, 89.139 1000.000, 190.492 "
fill = "none" stroke = "black"/>
</g>
<g>
<polygon points = "183.174, 711.955 249.135, 679.191 257.453, 682.530 263.893, 689.853 275.470, 711.560 180.283, 725.436 "
fill = "none" stroke = "black"/>
</g>
<g>
<polygon points = "216.845, 533.579 198.116, 523.139 183.720, 465.641 202.670, 401.599 206.153, 397.825 209.406, 396.075 235.492, 534.035 "
fill = "none" stroke = "black"/>
</g>
<g>
<polygon points = ""
fill = "none" stroke = "black"/>
</g>
<g>
<polygon points = "335.985, 190.853 335.276, 185.382 342.347, 126.197 364.070, 85.640 413.571, 110.034 417.827, 115.676 426.049, 147.856 402.217, 185.764 363.549, 195.437 339.570, 196.275 "
fill = "none" stroke = "black"/>
</g>
<g>
<polygon points = "218.393, 627.770 181.596, 619.237 180.520, 610.946 213.070, 616.201 "
fill = "none" stroke = "black"/>
</g>
<g>
<polygon points = "684.127, 752.054 399.269, 604.356 405.377, 593.753 773.454, 559.380 783.787, 569.083 781.426, 624.685 778.537, 640.439 723.268, 719.089 "
fill = "none" stroke = "black"/>
</g>
<g>
<polygon points = "246.353, 814.346 263.867, 777.865 290.206, 764.383 297.007, 771.809 319.975, 825.744 313.180, 867.159 "
fill = "none" stroke = "black"/>
</g>
<g>
<polygon points = "91.746, 433.092 100.174, 402.228 103.987, 399.365 176.807, 374.658 202.670, 401.599 183.720, 465.641 172.682, 478.706 95.921, 445.962 95.586, 445.162 "
fill = "none" stroke = "black"/>
</g>
<g>
<polygon points = "743.407, 912.699 779.223, 880.443 807.497, 888.226 810.943, 953.038 775.886, 1000.000 763.490, 1000.000 "
fill = "none" stroke = "black"/>
</g>
<g>
<polygon points = "773.454, 559.380 405.377, 593.753 426.794, 412.730 738.274, 470.829 "
fill = "none" stroke = "black"/>
</g>
<g>
<polygon points = "927.313, 290.779 916.934, 263.409 944.803, 173.140 1000.000, 190.492 1000.000, 240.806 "
fill = "none" stroke = "black"/>
</g>
<g>
<polygon points = "530.136, 148.105 523.427, 152.949 508.276, 118.557 511.021, 91.552 573.462, 72.095 576.899, 75.073 "
fill = "none" stroke = "black"/>
</g>
<g>
<polygon points = "685.301, 153.837 668.241, 179.518 628.942, 176.275 618.967, 166.310 622.604, 127.576 687.821, 137.947 "
fill = "none" stroke = "black"/>
</g>
<g>
<polygon points = "190.617, 834.207 139.135, 817.348 107.613, 735.508 121.019, 720.597 175.653, 731.613 189.361, 748.818 "
fill = "none" stroke = "black"/>
</g>
<g>
<polygon points = "656.473, 853.915 663.782, 836.025 727.150, 788.911 765.747, 783.247 780.774, 845.792 779.223, 880.443 743.407, 912.699 714.029, 919.825 "
fill = "none" stroke = "black"/>
</g>
<g>
<polygon points = "108.550, 694.498 121.019, 720.597 107.613, 735.508 38.988, 767.643 16.171, 767.883 0.000, 757.598 0.000, 718.333 "
fill = "none" stroke = "black"/>
</g>
<g>
<polygon points = "52.146, 540.668 52.042, 580.040 41.138, 613.460 0.000, 670.657 0.000, 517.867 "
fill = "none" stroke = "black"/>
</g>
<g>
<polygon points = "40.974, 172.672 94.671, 204.529 94.131, 229.720 42.437, 263.401 0.000, 241.534 0.000, 172.352 "
fill = "none" stroke = "black"/>
</g>
<g>
<polygon points = "945.345, 784.664 890.591, 814.394 854.751, 766.620 900.929, 685.651 912.954, 690.746 "
fill = "none" stroke = "black"/>
</g>
<g>
<polygon points = "108.550, 694.498 121.647, 664.405 178.435, 633.095 181.165, 637.133 183.174, 711.955 180.283, 725.436 175.653, 731.613 121.019, 720.597 "
fill = "none" stroke = "black"/>
</g>
<g>
<polygon points = "938.097, 333.532 922.859, 384.305 851.590, 324.975 852.728, 323.173 925.329, 302.932 "
fill = "none" stroke = "black"/>
</g>
<g>
<polygon points = ""
fill = "none" stroke = "black"/>
</g>
<g>
<polygon points = "333.520, 698.333 333.571, 741.356 294.611, 736.676 275.470, 711.560 263.893, 689.853 "
fill = "none" stroke = "black"/>
</g>
<g>
<polygon points = "506.622, 894.420 464.535, 891.899 459.142, 820.238 460.632, 817.286 518.741, 817.523 520.935, 818.537 "
fill = "none" stroke = "black"/>
</g>
<g>
<polygon points = "522.209, 186.709 519.687, 178.955 523.427, 152.949 530.136, 148.105 615.336, 119.320 622.604, 127.576 618.967, 166.310 545.182, 201.095 "
fill = "none" stroke = "black"/>
</g>
<g>
<polygon points = "639.383, 50.087 566.018, 46.762 526.157, 0.097 526.160, 0.021 526.165, 0.000 651.017, 0.000 "
fill = "none" stroke = "black"/>
</g>
<g>
<polygon points = "555.456, 809.726 577.357, 806.777 624.775, 880.827 597.714, 915.027 526.311, 817.784 539.025, 813.586 "
fill = "none" stroke = "black"/>
</g>
<g>
<polygon points = "938.816, 631.480 942.842, 538.234 944.411, 536.945 1000.000, 539.122 1000.000, 620.587 "
fill = "none" stroke = "black"/>
</g>
<g>
<polygon points = ""
fill = "none" stroke = "black"/>
</g>
<g>
<polygon points = "189.711, 543.921 159.304, 517.734 172.682, 478.706 183.720, 465.641 198.116, 523.139 "
fill = "none" stroke = "black"/>
</g>
<g>
<polygon points = "503.338, 43.419 453.050, 35.411 526.160, 0.021 526.157, 0.097 "
fill = "none" stroke = "black"/>
</g>
<g>
<polygon points = "109.045, 830.796 38.988, 767.643 107.613, 735.508 139.135, 817.348 "
fill = "none" stroke = "black"/>
</g>
<g>
<polygon points = "240.242, 348.849 260.808, 281.285 284.702, 284.662 268.451, 341.460 251.749, 351.229 "
fill = "none" stroke = "black"/>
</g>
<g>
<polygon points = "186.156, 322.247 176.807, 374.658 103.987, 399.365 113.317, 277.734 "
fill = "none" stroke = "black"/>
</g>
<g>
<polygon points = "601.539, 216.448 628.942, 176.275 668.241, 179.518 665.152, 207.187 660.602, 213.959 622.312, 222.989 "
fill = "none" stroke = "black"/>
</g>
<g>
<polygon points = ""
fill = "none" stroke = "black"/>
</g>
<g>
<polygon points = "392.553, 860.676 355.533, 830.400 361.772, 812.174 457.488, 815.350 460.632, 817.286 459.142, 820.238 "
fill = "none" stroke = "black"/>
</g>
<g>
<polygon points = "64.132, 24.097 40.974, 172.672 0.000, 172.352 0.000, 0.000 52.107, 0.000 "
fill = "none" stroke = "black"/>
</g>
<g>
<polygon points = "392.553, 860.676 459.142, 820.238 464.535, 891.899 463.652, 892.882 417.022, 915.233 380.339, 894.212 "
fill = "none" stroke = "black"/>
</g>
<g>
<polygon points = "938.816, 631.480 894.701, 674.200 865.999, 651.376 909.721, 553.292 942.842, 538.234 "
fill = "none" stroke = "black"/>
</g>
<g>
<polygon points = "84.149, 36.535 144.617, 145.779 106.919, 202.502 94.671, 204.529 40.974, 172.672 64.132, 24.097 "
fill = "none" stroke = "black"/>
</g>
<g>
<polygon points = "38.988, 767.643 109.045, 830.796 108.444, 890.662 57.516, 892.166 16.171, 767.883 "
fill = "none" stroke = "black"/>
</g>
<g>
<polygon points = "41.138, 613.460 111.012, 643.206 121.647, 664.405 108.550, 694.498 0.000, 718.333 0.000, 670.657 "
fill = "none" stroke = "black"/>
</g>
<g>
<polygon points = "192.026, 851.980 194.905, 840.062 246.353, 814.346 313.180, 867.159 313.618, 868.639 305.754, 872.269 253.457, 887.692 "
fill = "none" stroke = "black"/>
</g>
<g>
<polygon points = "844.601, 647.075 839.295, 649.252 823.733, 643.487 836.614, 537.336 849.618, 527.676 861.817, 538.408 "
fill = "none" stroke = "black"/>
</g>
<g>
<polygon points = "239.487, 651.076 218.393, 627.770 213.070, 616.201 204.651, 575.500 216.845, 533.579 235.492, 534.035 253.003, 542.900 "
fill = "none" stroke = "black"/>
</g>
<g>
<polygon points = "864.984, 49.752 810.499, 124.225 789.655, 119.701 780.085, 110.405 796.461, 0.000 859.470, 0.000 "
fill = "none" stroke = "black"/>
</g>
<g>
<polygon points = "628.874, 789.955 677.641, 759.745 727.150, 788.911 663.782, 836.025 "
fill = "none" stroke = "black"/>
</g>
<g>
<polygon points = "763.212, 108.683 689.496, 135.635 657.161, 71.596 730.209, 70.757 "
fill = "none" stroke = "black"/>
</g>
<g>
<polygon points = "211.075, 167.050 193.839, 135.411 253.742, 81.096 342.347, 126.197 335.276, 185.382 "
fill = "none" stroke = "black"/>
</g>
<g>
<polygon points = "410.638, 286.661 426.794, 412.730 405.377, 593.753 399.269, 604.356 357.911, 630.139 288.512, 538.242 317.107, 351.805 "
fill = "none" stroke = "black"/>
</g>
<g>
<polygon points = "555.887, 207.205 546.103, 201.990 545.182, 201.095 618.967, 166.310 628.942, 176.275 601.539, 216.448 "
fill = "none" stroke = "black"/>
</g>
<g>
<polygon points = ""
fill = "none" stroke = "black"/>
</g>
<g>
<polygon points = "959.007, 434.224 923.961, 412.974 922.859, 384.305 938.097, 333.532 1000.000, 373.036 1000.000, 423.803 "
fill = "none" stroke = "black"/>
</g>
<g>
<polygon points = ""
fill = "none" stroke = "black"/>
</g>
<g>
<polygon points = "710.287, 257.728 720.245, 264.284 734.951, 294.225 704.709, 285.161 673.808, 252.506 "
fill = "none" stroke = "black"/>
</g>
<g>
<polygon points = "946.526, 99.138 927.059, 0.000 1000.000, 0.000 1000.000, 89.139 "
fill = "none" stroke = "black"/>
</g>
<g>
<polygon points = "844.601, 647.075 865.999, 651.376 894.701, 674.200 900.929, 685.651 854.751, 766.620 807.691, 758.425 820.231, 705.679 839.295, 649.252 "
fill = "none" stroke = "black"/>
</g>
<g>
<polygon points = "738.274, 470.829 426.794, 412.730 410.638, 286.661 420.628, 271.809 443.628, 255.802 464.722, 252.890 525.146, 266.433 729.762, 371.133 "
fill = "none" stroke = "black"/>
</g>
<g>
<polygon points = "108.871, 630.483 52.042, 580.040 52.146, 540.668 94.848, 522.220 141.358, 535.175 146.334, 552.608 "
fill = "none" stroke = "black"/>
</g>
<g>
<polygon points = "530.136, 148.105 576.899, 75.073 609.890, 82.581 615.336, 119.320 "
fill = "none" stroke = "black"/>
</g>
<g>
<polygon points = "402.217, 185.764 473.063, 211.092 447.753, 239.626 363.549, 195.437 "
fill = "none" stroke = "black"/>
</g>
<g>
<polygon points = "927.313, 290.779 925.329, 302.932 852.728, 323.173 844.504, 261.274 861.366, 214.404 916.934, 263.409 "
fill = "none" stroke = "black"/>
</g>
<g>
<polygon points = "772.546, 336.299 822.016, 271.205 844.504, 261.274 852.728, 323.173 851.590, 324.975 815.381, 356.733 "
fill = "none" stroke = "black"/>
</g>
<g>
<polygon points = "698.675, 926.363 714.029, 919.825 743.407, 912.699 763.490, 1000.000 700.043, 1000.000 690.401, 940.289 "
fill = "none" stroke = "black"/>
</g>
<g>
<polygon points = "923.961, 412.974 959.007, 434.224 956.633, 441.926 871.611, 519.293 876.394, 421.064 "
fill = "none" stroke = "black"/>
</g>
<g>
<polygon points = "416.568, 937.243 417.022, 915.233 463.652, 892.882 501.482, 976.051 "
fill = "none" stroke = "black"/>
</g>
<g>
<polygon points = ""
fill = "none" stroke = "black"/>
</g>
<g>
<polygon points = "704.232, 289.906 673.063, 252.206 673.808, 252.506 704.709, 285.161 "
fill = "none" stroke = "black"/>
</g>
<g>
<polygon points = "125.177, 51.287 206.754, 41.818 250.105, 73.047 253.863, 77.761 253.742, 81.096 193.839, 135.411 156.889, 138.039 "
fill = "none" stroke = "black"/>
</g>
<g>
<polygon points = "914.851, 124.542 914.556, 151.806 864.247, 169.296 810.499, 124.225 864.984, 49.752 "
fill = "none" stroke = "black"/>
</g>
<g>
<polygon points = "597.714, 915.027 575.691, 950.647 506.622, 894.420 520.935, 818.537 526.311, 817.784 "
fill = "none" stroke = "black"/>
</g>
<g>
<polygon points = "526.160, 0.021 453.050, 35.411 360.587, 54.862 354.831, 0.000 526.165, 0.000 "
fill = "none" stroke = "black"/>
</g>
<g>
<polygon points = "146.334, 552.608 141.358, 535.175 159.304, 517.734 189.711, 543.921 189.936, 545.578 179.536, 607.444 "
fill = "none" stroke = "black"/>
</g>
<g>
<polygon points = ""
fill = "none" stroke = "black"/>
</g>
<g>
<polygon points = "909.721, 553.292 865.999, 651.376 844.601, 647.075 861.817, 538.408 864.741, 537.223 "
fill = "none" stroke = "black"/>
</g>
<g>
<polygon points = "492.182, 204.563 473.063, 211.092 402.217, 185.764 426.049, 147.856 519.687, 178.955 522.209, 186.709 "
fill = "none" stroke = "black"/>
</g>
<g>
<polygon points = "355.811, 778.166 361.772, 812.174 355.533, 830.400 319.975, 825.744 297.007, 771.809 "
fill = "none" stroke = "black"/>
</g>
<g>
<polygon points = ""
fill = "none" stroke = "black"/>
</g>
<g>
<polygon points = ""
fill = "none" stroke = "black"/>
</g>
<g>
<polygon points = "85.490, 976.867 85.947, 1000.000 0.000, 1000.000 0.000, 924.727 40.460, 924.545 "
fill = "none" stroke = "black"/>
</g>
<g>
<polygon points = "822.016, 271.205 772.546, 336.299 771.403, 336.189 766.607, 243.593 "
fill = "none" stroke = "black"/>
</g>
<g>
<polygon points = ""
fill = "none" stroke = "black"/>
</g>
<g>
<polygon points = "767.449, 341.010 734.769, 321.310 712.595, 301.521 704.232, 289.906 704.709, 285.161 734.951, 294.225 770.257, 336.521 "
fill = "none" stroke = "black"/>
</g>
<g>
<polygon points = "106.919, 202.502 144.617, 145.779 156.889, 138.039 193.839, 135.411 211.075, 167.050 184.361, 229.128 "
fill = "none" stroke = "black"/>
</g>
<g>
<polygon points = "763.212, 108.683 780.085, 110.405 789.655, 119.701 757.108, 169.017 747.618, 177.548 685.301, 153.837 687.821, 137.947 689.496, 135.635 "
fill = "none" stroke = "black"/>
</g>
<g>
<polygon points = "108.444, 890.662 148.210, 914.784 148.082, 914.964 85.490, 976.867 40.460, 924.545 57.516, 892.166 "
fill = "none" stroke = "black"/>
</g>
<g>
<polygon points = "799.817, 393.227 767.449, 341.010 770.257, 336.521 771.403, 336.189 772.546, 336.299 815.381, 356.733 815.374, 382.691 "
fill = "none" stroke = "black"/>
</g>
<g>
<polygon points = "194.905, 840.062 190.617, 834.207 189.361, 748.818 263.867, 777.865 246.353, 814.346 "
fill = "none" stroke = "black"/>
</g>
<g>
<polygon points = "111.012, 643.206 41.138, 613.460 52.042, 580.040 108.871, 630.483 "
fill = "none" stroke = "black"/>
</g>
<g>
<polygon points = "946.526, 99.138 914.851, 124.542 864.984, 49.752 859.470, 0.000 927.059, 0.000 "
fill = "none" stroke = "black"/>
</g>
<g>
<polygon points = ""
fill = "none" stroke = "black"/>
</g>
<g>
<polygon points = "677.641, 759.745 684.127, 752.054 723.268, 719.089 731.146, 726.916 767.970, 780.850 765.747, 783.247 727.150, 788.911 "
fill = "none" stroke = "black"/>
</g>
<g>
<polygon points = "789.655, 119.701 810.499, 124.225 864.247, 169.296 859.461, 198.776 793.290, 209.677 757.108, 169.017 "
fill = "none" stroke = "black"/>
</g>
<g>
<polygon points = ""
fill = "none" stroke = "black"/>
</g>
<g>
<polygon points = "148.082, 914.964 148.210, 914.784 151.005, 913.837 219.862, 944.050 249.393, 1000.000 174.435, 1000.000 "
fill = "none" stroke = "black"/>
</g>
<g>
<polygon points = "206.754, 41.818 125.177, 51.287 84.149, 36.535 64.132, 24.097 52.107, 0.000 207.273, 0.000 "
fill = "none" stroke = "black"/>
</g>
<g>
<polygon points = "218.308, 254.204 184.361, 229.128 211.075, 167.050 335.276, 185.382 335.985, 190.853 "
fill = "none" stroke = "black"/>
</g>
<g>
<polygon points = "111.012, 643.206 108.871, 630.483 146.334, 552.608 179.536, 607.444 180.520, 610.946 181.596, 619.237 178.435, 633.095 121.647, 664.405 "
fill = "none" stroke = "black"/>
</g>
<g>
<polygon points = "577.357, 806.777 628.874, 789.955 663.782, 836.025 656.473, 853.915 646.669, 870.214 624.775, 880.827 "
fill = "none" stroke = "black"/>
</g>
<g>
<polygon points = "807.691, 758.425 854.751, 766.620 890.591, 814.394 889.051, 847.589 780.774, 845.792 765.747, 783.247 767.970, 780.850 "
fill = "none" stroke = "black"/>
</g>
<g>
<polygon points = "945.345, 784.664 912.954, 690.746 1000.000, 693.241 1000.000, 785.399 "
fill = "none" stroke = "black"/>
</g>
<g>
<polygon points = "151.005, 913.837 192.026, 851.980 253.457, 887.692 237.770, 934.512 219.862, 944.050 "
fill = "none" stroke = "black"/>
</g>
<g>
<polygon points = "186.156, 322.247 217.258, 296.989 226.460, 358.026 206.153, 397.825 202.670, 401.599 176.807, 374.658 "
fill = "none" stroke = "black"/>
</g>
<g>
<polygon points = "747.618, 177.548 745.221, 183.941 709.488, 206.937 665.152, 207.187 668.241, 179.518 685.301, 153.837 "
fill = "none" stroke = "black"/>
</g>
<g>
<polygon points = "665.152, 207.187 709.488, 206.937 710.287, 257.728 673.808, 252.506 673.063, 252.206 659.169, 240.217 660.602, 213.959 "
fill = "none" stroke = "black"/>
</g>
<g>
<polygon points = ""
fill = "none" stroke = "black"/>
</g>
<g>
<polygon points = "9.244, 371.305 45.130, 367.124 100.174, 402.228 91.746, 433.092 84.220, 434.537 0.000, 430.876 0.000, 375.461 "
fill = "none" stroke = "black"/>
</g>
<g>
<polygon points = "181.165, 637.133 249.135, 679.191 183.174, 711.955 "
fill = "none" stroke = "black"/>
</g>
<g>
<polygon points = "656.473, 853.915 714.029, 919.825 698.675, 926.363 646.669, 870.214 "
fill = "none" stroke = "black"/>
</g>
<g>
<polygon points = "810.659, 457.810 816.723, 467.820 816.788, 474.509 811.396, 474.946 "
fill = "none" stroke = "black"/>
</g>
<g>
<polygon points = "673.063, 252.206 704.232, 289.906 712.595, 301.521 525.146, 266.433 464.722, 252.890 555.887, 207.205 601.539, 216.448 622.312, 222.989 659.169, 240.217 "
fill = "none" stroke = "black"/>
</g>
<g>
<polygon points = "284.702, 284.662 260.808, 281.285 259.164, 279.766 335.628, 204.382 326.529, 253.655 "
fill = "none" stroke = "black"/>
</g>
<g>
<polygon points = "151.005, 913.837 148.210, 914.784 108.444, 890.662 109.045, 830.796 139.135, 817.348 190.617, 834.207 194.905, 840.062 192.026, 851.980 "
fill = "none" stroke = "black"/>
</g>
<g>
<polygon points = "426.049, 147.856 417.827, 115.676 508.276, 118.557 523.427, 152.949 519.687, 178.955 "
fill = "none" stroke = "black"/>
</g>
<g>
<polygon points = "810.659, 457.810 799.817, 393.227 815.374, 382.691 862.033, 417.974 816.723, 467.820 "
fill = "none" stroke = "black"/>
</g>
<g>
<polygon points = "807.691, 758.425 767.970, 780.850 731.146, 726.916 820.231, 705.679 "
fill = "none" stroke = "black"/>
</g>
<g>
<polygon points = "172.682, 478.706 159.304, 517.734 141.358, 535.175 94.848, 522.220 95.921, 445.962 "
fill = "none" stroke = "black"/>
</g>
<g>
<polygon points = "206.153, 397.825 226.460, 358.026 240.242, 348.849 251.749, 351.229 209.406, 396.075 "
fill = "none" stroke = "black"/>
</g>
<g>
<polygon points = "677.641, 759.745 628.874, 789.955 577.357, 806.777 555.456, 809.726 455.658, 772.596 352.609, 671.534 357.911, 630.139 399.269, 604.356 684.127, 752.054 "
fill = "none" stroke = "black"/>
</g>
<g>
<polygon points = "239.487, 651.076 257.453, 682.530 249.135, 679.191 181.165, 637.133 178.435, 633.095 181.596, 619.237 218.393, 627.770 "
fill = "none" stroke = "black"/>
</g>
<g>
<polygon points = "357.911, 630.139 352.609, 671.534 333.520, 698.333 263.893, 689.853 257.453, 682.530 239.487, 651.076 253.003, 542.900 288.512, 538.242 "
fill = "none" stroke = "black"/>
</g>
<g>
<polygon points = "370.369, 770.527 333.571, 741.356 333.520, 698.333 352.609, 671.534 455.658, 772.596 450.032, 810.434 "
fill = "none" stroke = "black"/>
</g>
<g>
<polygon points = "305.754, 872.269 313.618, 868.639 349.959, 901.574 340.598, 986.913 246.055, 935.219 "
fill = "none" stroke = "black"/>
</g>
<g>
<polygon points = "333.571, 741.356 370.369, 770.527 355.811, 778.166 297.007, 771.809 290.206, 764.383 294.611, 736.676 "
fill = "none" stroke = "black"/>
</g>
<g>
<polygon points = ""
fill = "none" stroke = "black"/>
</g>
<g>
<polygon points = "492.182, 204.563 522.209, 186.709 545.182, 201.095 546.103, 201.990 "
fill = "none" stroke = "black"/>
</g>
<g>
<polygon points = "780.085, 110.405 763.212, 108.683 730.209, 70.757 713.045, 0.000 796.461, 0.000 "
fill = "none" stroke = "black"/>
</g>
<g>
<polygon points = "360.587, 54.862 453.050, 35.411 503.338, 43.419 499.585, 57.786 413.571, 110.034 364.070, 85.640 360.104, 57.996 "
fill = "none" stroke = "black"/>
</g>
<g>
<polygon points = "204.651, 575.500 189.936, 545.578 189.711, 543.921 198.116, 523.139 216.845, 533.579 "
fill = "none" stroke = "black"/>
</g>
<g>
<polygon points = "464.722, 252.890 443.628, 255.802 447.753, 239.626 473.063, 211.092 492.182, 204.563 546.103, 201.990 555.887, 207.205 "
fill = "none" stroke = "black"/>
</g>
<g>
<polygon points = "284.702, 284.662 326.529, 253.655 420.628, 271.809 410.638, 286.661 317.107, 351.805 268.451, 341.460 "
fill = "none" stroke = "black"/>
</g>
<g>
<polygon points = "903.460, 865.172 889.997, 853.588 889.051, 847.589 890.591, 814.394 945.345, 784.664 1000.000, 785.399 1000.000, 913.966 "
fill = "none" stroke = "black"/>
</g>
<g>
<polygon points = ""
fill = "none" stroke = "black"/>
</g>
<g>
<polygon points = "729.762, 371.133 525.146, 266.433 712.595, 301.521 734.769, 321.310 "
fill = "none" stroke = "black"/>
</g>
<g>
<polygon points = "909.300, 996.919 910.269, 1000.000 785.091, 1000.000 812.000, 954.212 888.795, 960.970 "
fill = "none" stroke = "black"/>
</g>
<g>
<polygon points = "226.460, 358.026 217.258, 296.989 227.814, 278.267 259.164, 279.766 260.808, 281.285 240.242, 348.849 "
fill = "none" stroke = "black"/>
</g>
<g>
<polygon points = "503.338, 43.419 526.157, 0.097 566.018, 46.762 573.462, 72.095 511.021, 91.552 499.585, 57.786 "
fill = "none" stroke = "black"/>
</g>
<g>
<polygon points = "360.587, 54.862 360.104, 57.996 253.863, 77.761 250.105, 73.047 296.617, 0.000 354.831, 0.000 "
fill = "none" stroke = "black"/>
</g>
<g>
<polygon points = ""
fill = "none" stroke = "black"/>
</g>
<g>
<polygon points = ""
fill = "none" stroke = "black"/>
</g>
<g>
<polygon points = "810.943, 953.038 812.000, 954.212 785.091, 1000.000 775.886, 1000.000 "
fill = "none" stroke = "black"/>
</g>
<g>
<polygon points = "94.671, 204.529 106.919, 202.502 184.361, 229.128 218.308, 254.204 227.814, 278.267 217.258, 296.989 186.156, 322.247 113.317, 277.734 102.537, 263.751 94.131, 229.720 "
fill = "none" stroke = "black"/>
</g>
<g>
<polygon points = "781.426, 624.685 787.596, 638.077 778.537, 640.439 "
fill = "none" stroke = "black"/>
</g>
<g>
<polygon points = ""
fill = "none" stroke = "black"/>
</g>
<g>
<polygon points = "938.097, 333.532 925.329, 302.932 927.313, 290.779 1000.000, 240.806 1000.000, 373.036 "
fill = "none" stroke = "black"/>
</g>
<g>
<polygon points = "259.164, 279.766 227.814, 278.267 218.308, 254.204 335.985, 190.853 339.570, 196.275 335.628, 204.382 "
fill = "none" stroke = "black"/>
</g>
<g>
<polygon points = "85.490, 976.867 148.082, 914.964 174.435, 1000.000 85.947, 1000.000 "
fill = "none" stroke = "black"/>
</g>
<g>
<polygon points = "501.482, 976.051 463.652, 892.882 464.535, 891.899 506.622, 894.420 575.691, 950.647 574.547, 975.285 564.375, 1000.000 531.214, 1000.000 "
fill = "none" stroke = "black"/>
</g>
<g>
<polygon points = "125.177, 51.287 156.889, 138.039 144.617, 145.779 84.149, 36.535 "
fill = "none" stroke = "black"/>
</g>
<g>
<polygon points = "793.290, 209.677 859.461, 198.776 861.366, 214.404 844.504, 261.274 822.016, 271.205 766.607, 243.593 765.931, 242.108 766.849, 233.817 "
fill = "none" stroke = "black"/>
</g>
<g>
<polygon points = "416.568, 937.243 501.482, 976.051 531.214, 1000.000 344.943, 1000.000 "
fill = "none" stroke = "black"/>
</g>
<g>
<polygon points = "773.454, 559.380 738.274, 470.829 729.762, 371.133 734.769, 321.310 767.449, 341.010 799.817, 393.227 810.659, 457.810 811.396, 474.946 801.854, 517.499 783.787, 569.083 "
fill = "none" stroke = "black"/>
</g>
<g>
<polygon points = "91.746, 433.092 95.586, 445.162 84.220, 434.537 "
fill = "none" stroke = "black"/>
</g>
<g>
<polygon points = "361.772, 812.174 355.811, 778.166 370.369, 770.527 450.032, 810.434 457.488, 815.350 "
fill = "none" stroke = "black"/>
</g>
<circle cx="0.008" cy="868.462" r="1" stroke="red" stroke-width="1" fill="red" />
<circle cx="755.605" cy="541.350" r="1" stroke="red" stroke-width="1" fill="red" />
<circle cx="532.767" cy="781.041" r="1" stroke="red" stroke-width="1" fill="red" />
<circle cx="47.045" cy="321.135" r="1" stroke="red" stroke-width="1" fill="red" />
<circle cx="679.296" cy="65.307" r="1" stroke="red" stroke-width="1" fill="red" />
<circle cx="383.502" cy="480.584" r="1" stroke="red" stroke-width="1" fill="red" />
<circle cx="830.965" cy="965.428" r="1" stroke="red" stroke-width="1" fill="red" />
<circle cx="53.462" cy="470.300" r="1" stroke="red" stroke-width="1" fill="red" />
<circle cx="671.149" cy="992.302" r="1" stroke="red" stroke-width="1" fill="red" />
<circle cx="383.416" cy="933.158" r="1" stroke="red" stroke-width="1" fill="red" />
<circle cx="417.486" cy="313.227" r="1" stroke="red" stroke-width="1" fill="red" />
<circle cx="588.977" cy="69.564" r="1" stroke="red" stroke-width="1" fill="red" />
<circle cx="846.167" cy="473.071" r="1" stroke="red" stroke-width="1" fill="red" />
<circle cx="91.965" cy="346.081" r="1" stroke="red" stroke-width="1" fill="red" />
<circle cx="415.999" cy="298.809" r="1" stroke="red" stroke-width="1" fill="red" />
<circle cx="910.321" cy="237.802" r="1" stroke="red" stroke-width="1" fill="red" />
<circle cx="262.453" cy="952.535" r="1" stroke="red" stroke-width="1" fill="red" />
<circle cx="736.082" cy="671.766" r="1" stroke="red" stroke-width="1" fill="red" />
<circle cx="632.639" cy="243.590" r="1" stroke="red" stroke-width="1" fill="red" />
<circle cx="991.037" cy="634.661" r="1" stroke="red" stroke-width="1" fill="red" />
<circle cx="247.039" cy="17.450" r="1" stroke="red" stroke-width="1" fill="red" />
<circle cx="722.660" cy="246.644" r="1" stroke="red" stroke-width="1" fill="red" />
<circle cx="651.519" cy="927.314" r="1" stroke="red" stroke-width="1" fill="red" />
<circle cx="631.635" cy="115.293" r="1" stroke="red" stroke-width="1" fill="red" />
<circle cx="272.710" cy="563.589" r="1" stroke="red" stroke-width="1" fill="red" />
<circle cx="766.495" cy="522.268" r="1" stroke="red" stroke-width="1" fill="red" />
<circle cx="237.774" cy="725.093" r="1" stroke="red" stroke-width="1" fill="red" />
<circle cx="359.265" cy="833.493" r="1" stroke="red" stroke-width="1" fill="red" />
<circle cx="486.517" cy="102.344" r="1" stroke="red" stroke-width="1" fill="red" />
<circle cx="909.208" cy="939.436" r="1" stroke="red" stroke-width="1" fill="red" />
<circle cx="904.653" cy="495.477" r="1" stroke="red" stroke-width="1" fill="red" />
<circle cx="516.292" cy="680.967" r="1" stroke="red" stroke-width="1" fill="red" />
<circle cx="986.642" cy="506.023" r="1" stroke="red" stroke-width="1" fill="red" />
<circle cx="266.145" cy="909.267" r="1" stroke="red" stroke-width="1" fill="red" />
<circle cx="947.764" cy="926.251" r="1" stroke="red" stroke-width="1" fill="red" />
<circle cx="500.707" cy="615.858" r="1" stroke="red" stroke-width="1" fill="red" />
<circle cx="277.082" cy="86.183" r="1" stroke="red" stroke-width="1" fill="red" />
<circle cx="529.747" cy="535.554" r="1" stroke="red" stroke-width="1" fill="red" />
<circle cx="940.980" cy="949.916" r="1" stroke="red" stroke-width="1" fill="red" />
<circle cx="761.514" cy="229.795" r="1" stroke="red" stroke-width="1" fill="red" />
<circle cx="827.817" cy="874.635" r="1" stroke="red" stroke-width="1" fill="red" />
<circle cx="15.868" cy="311.545" r="1" stroke="red" stroke-width="1" fill="red" />
<circle cx="868.247" cy="370.457" r="1" stroke="red" stroke-width="1" fill="red" />
<circle cx="736.225" cy="274.588" r="1" stroke="red" stroke-width="1" fill="red" />
<circle cx="999.458" cy="111.428" r="1" stroke="red" stroke-width="1" fill="red" />
<circle cx="233.195" cy="693.678" r="1" stroke="red" stroke-width="1" fill="red" />
<circle cx="351.015" cy="486.726" r="1" stroke="red" stroke-width="1" fill="red" />
<circle cx="591.114" cy="154.018" r="1" stroke="red" stroke-width="1" fill="red" />
<circle cx="412.081" cy="158.489" r="1" stroke="red" stroke-width="1" fill="red" />
<circle cx="269.317" cy="584.605" r="1" stroke="red" stroke-width="1" fill="red" />
<circle cx="537.304" cy="532.083" r="1" stroke="red" stroke-width="1" fill="red" />
<circle cx="287.212" cy="821.672" r="1" stroke="red" stroke-width="1" fill="red" />
<circle cx="153.720" cy="428.345" r="1" stroke="red" stroke-width="1" fill="red" />
<circle cx="802.406" cy="966.946" r="1" stroke="red" stroke-width="1" fill="red" />
<circle cx="534.450" cy="501.520" r="1" stroke="red" stroke-width="1" fill="red" />
<circle cx="955.361" cy="251.707" r="1" stroke="red" stroke-width="1" fill="red" />
<circle cx="554.584" cy="109.263" r="1" stroke="red" stroke-width="1" fill="red" />
<circle cx="624.849" cy="157.960" r="1" stroke="red" stroke-width="1" fill="red" />
<circle cx="159.768" cy="787.248" r="1" stroke="red" stroke-width="1" fill="red" />
<circle cx="714.710" cy="869.573" r="1" stroke="red" stroke-width="1" fill="red" />
<circle cx="90.990" cy="725.412" r="1" stroke="red" stroke-width="1" fill="red" />
<circle cx="3.000" cy="585.707" r="1" stroke="red" stroke-width="1" fill="red" />
<circle cx="26.876" cy="290.180" r="1" stroke="red" stroke-width="1" fill="red" />
<circle cx="937.897" cy="760.089" r="1" stroke="red" stroke-width="1" fill="red" />
<circle cx="180.896" cy="682.460" r="1" stroke="red" stroke-width="1" fill="red" />
<circle cx="886.991" cy="347.941" r="1" stroke="red" stroke-width="1" fill="red" />
<circle cx="150.335" cy="318.654" r="1" stroke="red" stroke-width="1" fill="red" />
<circle cx="385.815" cy="612.275" r="1" stroke="red" stroke-width="1" fill="red" />
<circle cx="499.741" cy="852.467" r="1" stroke="red" stroke-width="1" fill="red" />
<circle cx="587.187" cy="154.424" r="1" stroke="red" stroke-width="1" fill="red" />
<circle cx="590.109" cy="44.591" r="1" stroke="red" stroke-width="1" fill="red" />
<circle cx="556.146" cy="851.848" r="1" stroke="red" stroke-width="1" fill="red" />
<circle cx="983.305" cy="591.233" r="1" stroke="red" stroke-width="1" fill="red" />
<circle cx="141.820" cy="435.101" r="1" stroke="red" stroke-width="1" fill="red" />
<circle cx="252.126" cy="511.485" r="1" stroke="red" stroke-width="1" fill="red" />
<circle cx="464.031" cy="38.905" r="1" stroke="red" stroke-width="1" fill="red" />
<circle cx="126.031" cy="800.243" r="1" stroke="red" stroke-width="1" fill="red" />
<circle cx="319.250" cy="370.731" r="1" stroke="red" stroke-width="1" fill="red" />
<circle cx="126.712" cy="348.746" r="1" stroke="red" stroke-width="1" fill="red" />
<circle cx="621.634" cy="196.927" r="1" stroke="red" stroke-width="1" fill="red" />
<circle cx="247.842" cy="523.568" r="1" stroke="red" stroke-width="1" fill="red" />
<circle cx="389.314" cy="796.750" r="1" stroke="red" stroke-width="1" fill="red" />
<circle cx="28.375" cy="98.327" r="1" stroke="red" stroke-width="1" fill="red" />
<circle cx="426.497" cy="857.979" r="1" stroke="red" stroke-width="1" fill="red" />
<circle cx="947.487" cy="589.687" r="1" stroke="red" stroke-width="1" fill="red" />
<circle cx="131.189" cy="114.352" r="1" stroke="red" stroke-width="1" fill="red" />
<circle cx="92.174" cy="837.801" r="1" stroke="red" stroke-width="1" fill="red" />
<circle cx="71.064" cy="634.661" r="1" stroke="red" stroke-width="1" fill="red" />
<circle cx="253.057" cy="864.891" r="1" stroke="red" stroke-width="1" fill="red" />
<circle cx="783.153" cy="544.693" r="1" stroke="red" stroke-width="1" fill="red" />
<circle cx="349.524" cy="547.700" r="1" stroke="red" stroke-width="1" fill="red" />
<circle cx="808.945" cy="68.326" r="1" stroke="red" stroke-width="1" fill="red" />
<circle cx="651.646" cy="784.752" r="1" stroke="red" stroke-width="1" fill="red" />
<circle cx="679.592" cy="91.078" r="1" stroke="red" stroke-width="1" fill="red" />
<circle cx="250.126" cy="139.140" r="1" stroke="red" stroke-width="1" fill="red" />
<circle cx="471.262" cy="494.044" r="1" stroke="red" stroke-width="1" fill="red" />
<circle cx="600.394" cy="182.439" r="1" stroke="red" stroke-width="1" fill="red" />
<circle cx="755.844" cy="537.755" r="1" stroke="red" stroke-width="1" fill="red" />
<circle cx="951.367" cy="367.261" r="1" stroke="red" stroke-width="1" fill="red" />
<circle cx="439.330" cy="175.303" r="1" stroke="red" stroke-width="1" fill="red" />
<circle cx="688.981" cy="297.793" r="1" stroke="red" stroke-width="1" fill="red" />
<circle cx="987.145" cy="45.585" r="1" stroke="red" stroke-width="1" fill="red" />
<circle cx="851.270" cy="710.684" r="1" stroke="red" stroke-width="1" fill="red" />
<circle cx="537.426" cy="485.565" r="1" stroke="red" stroke-width="1" fill="red" />
<circle cx="103.434" cy="585.972" r="1" stroke="red" stroke-width="1" fill="red" />
<circle cx="576.717" cy="123.434" r="1" stroke="red" stroke-width="1" fill="red" />
<circle cx="440.039" cy="270.252" r="1" stroke="red" stroke-width="1" fill="red" />
<circle cx="869.264" cy="284.358" r="1" stroke="red" stroke-width="1" fill="red" />
<circle cx="800.720" cy="293.465" r="1" stroke="red" stroke-width="1" fill="red" />
<circle cx="741.716" cy="980.908" r="1" stroke="red" stroke-width="1" fill="red" />
<circle cx="886.031" cy="475.013" r="1" stroke="red" stroke-width="1" fill="red" />
<circle cx="463.323" cy="934.806" r="1" stroke="red" stroke-width="1" fill="red" />
<circle cx="713.422" cy="511.057" r="1" stroke="red" stroke-width="1" fill="red" />
<circle cx="667.679" cy="317.951" r="1" stroke="red" stroke-width="1" fill="red" />
<circle cx="199.555" cy="83.366" r="1" stroke="red" stroke-width="1" fill="red" />
<circle cx="865.883" cy="109.981" r="1" stroke="red" stroke-width="1" fill="red" />
<circle cx="543.948" cy="860.805" r="1" stroke="red" stroke-width="1" fill="red" />
<circle cx="450.347" cy="10.638" r="1" stroke="red" stroke-width="1" fill="red" />
<circle cx="215.532" cy="553.977" r="1" stroke="red" stroke-width="1" fill="red" />
<circle cx="315.732" cy="485.341" r="1" stroke="red" stroke-width="1" fill="red" />
<circle cx="881.504" cy="560.274" r="1" stroke="red" stroke-width="1" fill="red" />
<circle cx="467.532" cy="193.350" r="1" stroke="red" stroke-width="1" fill="red" />
<circle cx="365.158" cy="788.481" r="1" stroke="red" stroke-width="1" fill="red" />
<circle cx="999.117" cy="846.396" r="1" stroke="red" stroke-width="1" fill="red" />
<circle cx="630.488" cy="383.650" r="1" stroke="red" stroke-width="1" fill="red" />
<circle cx="0.595" cy="999.121" r="1" stroke="red" stroke-width="1" fill="red" />
<circle cx="773.352" cy="272.665" r="1" stroke="red" stroke-width="1" fill="red" />
<circle cx="319.178" cy="582.276" r="1" stroke="red" stroke-width="1" fill="red" />
<circle cx="682.494" cy="319.438" r="1" stroke="red" stroke-width="1" fill="red" />
<circle cx="205.262" cy="163.580" r="1" stroke="red" stroke-width="1" fill="red" />
<circle cx="708.921" cy="171.292" r="1" stroke="red" stroke-width="1" fill="red" />
<circle cx="94.549" cy="918.262" r="1" stroke="red" stroke-width="1" fill="red" />
<circle cx="764.005" cy="370.428" r="1" stroke="red" stroke-width="1" fill="red" />
<circle cx="213.852" cy="786.453" r="1" stroke="red" stroke-width="1" fill="red" />
<circle cx="81.061" cy="611.177" r="1" stroke="red" stroke-width="1" fill="red" />
<circle cx="952.160" cy="52.455" r="1" stroke="red" stroke-width="1" fill="red" />
<circle cx="389.854" cy="730.785" r="1" stroke="red" stroke-width="1" fill="red" />
<circle cx="692.169" cy="715.965" r="1" stroke="red" stroke-width="1" fill="red" />
<circle cx="776.866" cy="216.135" r="1" stroke="red" stroke-width="1" fill="red" />
<circle cx="422.460" cy="717.844" r="1" stroke="red" stroke-width="1" fill="red" />
<circle cx="193.967" cy="988.684" r="1" stroke="red" stroke-width="1" fill="red" />
<circle cx="191.824" cy="16.764" r="1" stroke="red" stroke-width="1" fill="red" />
<circle cx="244.054" cy="180.274" r="1" stroke="red" stroke-width="1" fill="red" />
<circle cx="136.455" cy="601.856" r="1" stroke="red" stroke-width="1" fill="red" />
<circle cx="601.010" cy="823.120" r="1" stroke="red" stroke-width="1" fill="red" />
<circle cx="828.355" cy="842.269" r="1" stroke="red" stroke-width="1" fill="red" />
<circle cx="987.937" cy="742.831" r="1" stroke="red" stroke-width="1" fill="red" />
<circle cx="233.599" cy="898.363" r="1" stroke="red" stroke-width="1" fill="red" />
<circle cx="219.411" cy="365.283" r="1" stroke="red" stroke-width="1" fill="red" />
<circle cx="696.007" cy="205.230" r="1" stroke="red" stroke-width="1" fill="red" />
<circle cx="696.243" cy="247.060" r="1" stroke="red" stroke-width="1" fill="red" />
<circle cx="669.521" cy="366.570" r="1" stroke="red" stroke-width="1" fill="red" />
<circle cx="56.441" cy="401.783" r="1" stroke="red" stroke-width="1" fill="red" />
<circle cx="227.008" cy="681.222" r="1" stroke="red" stroke-width="1" fill="red" />
<circle cx="699.834" cy="882.563" r="1" stroke="red" stroke-width="1" fill="red" />
<circle cx="762.571" cy="473.877" r="1" stroke="red" stroke-width="1" fill="red" />
<circle cx="553.911" cy="412.011" r="1" stroke="red" stroke-width="1" fill="red" />
<circle cx="329.666" cy="297.011" r="1" stroke="red" stroke-width="1" fill="red" />
<circle cx="143.045" cy="838.312" r="1" stroke="red" stroke-width="1" fill="red" />
<circle cx="485.325" cy="139.774" r="1" stroke="red" stroke-width="1" fill="red" />
<circle cx="813.266" cy="443.164" r="1" stroke="red" stroke-width="1" fill="red" />
<circle cx="738.997" cy="683.993" r="1" stroke="red" stroke-width="1" fill="red" />
<circle cx="135.332" cy="471.452" r="1" stroke="red" stroke-width="1" fill="red" />
<circle cx="310.739" cy="411.881" r="1" stroke="red" stroke-width="1" fill="red" />
<circle cx="518.084" cy="569.152" r="1" stroke="red" stroke-width="1" fill="red" />
<circle cx="258.843" cy="629.774" r="1" stroke="red" stroke-width="1" fill="red" />
<circle cx="393.018" cy="553.134" r="1" stroke="red" stroke-width="1" fill="red" />
<circle cx="475.896" cy="612.169" r="1" stroke="red" stroke-width="1" fill="red" />
<circle cx="279.293" cy="921.737" r="1" stroke="red" stroke-width="1" fill="red" />
<circle cx="369.742" cy="746.078" r="1" stroke="red" stroke-width="1" fill="red" />
<circle cx="671.784" cy="323.763" r="1" stroke="red" stroke-width="1" fill="red" />
<circle cx="513.936" cy="271.392" r="1" stroke="red" stroke-width="1" fill="red" />
<circle cx="720.768" cy="55.247" r="1" stroke="red" stroke-width="1" fill="red" />
<circle cx="460.697" cy="59.837" r="1" stroke="red" stroke-width="1" fill="red" />
<circle cx="321.560" cy="539.566" r="1" stroke="red" stroke-width="1" fill="red" />
<circle cx="517.145" cy="338.645" r="1" stroke="red" stroke-width="1" fill="red" />
<circle cx="401.833" cy="394.360" r="1" stroke="red" stroke-width="1" fill="red" />
<circle cx="986.503" cy="849.606" r="1" stroke="red" stroke-width="1" fill="red" />
<circle cx="670.098" cy="656.182" r="1" stroke="red" stroke-width="1" fill="red" />
<circle cx="541.710" cy="477.192" r="1" stroke="red" stroke-width="1" fill="red" />
<circle cx="829.239" cy="985.049" r="1" stroke="red" stroke-width="1" fill="red" />
<circle cx="274.210" cy="357.021" r="1" stroke="red" stroke-width="1" fill="red" />
<circle cx="546.137" cy="82.152" r="1" stroke="red" stroke-width="1" fill="red" />
<circle cx="266.613" cy="29.913" r="1" stroke="red" stroke-width="1" fill="red" />
<circle cx="246.733" cy="156.025" r="1" stroke="red" stroke-width="1" fill="red" />
<circle cx="694.024" cy="544.248" r="1" stroke="red" stroke-width="1" fill="red" />
<circle cx="817.101" cy="977.916" r="1" stroke="red" stroke-width="1" fill="red" />
<circle cx="160.749" cy="293.050" r="1" stroke="red" stroke-width="1" fill="red" />
<circle cx="707.826" cy="563.362" r="1" stroke="red" stroke-width="1" fill="red" />
<circle cx="582.421" cy="248.290" r="1" stroke="red" stroke-width="1" fill="red" />
<circle cx="991.533" cy="304.321" r="1" stroke="red" stroke-width="1" fill="red" />
<circle cx="279.512" cy="246.137" r="1" stroke="red" stroke-width="1" fill="red" />
<circle cx="171.179" cy="995.746" r="1" stroke="red" stroke-width="1" fill="red" />
<circle cx="495.691" cy="920.083" r="1" stroke="red" stroke-width="1" fill="red" />
<circle cx="163.081" cy="96.699" r="1" stroke="red" stroke-width="1" fill="red" />
<circle cx="782.992" cy="253.321" r="1" stroke="red" stroke-width="1" fill="red" />
<circle cx="436.426" cy="993.658" r="1" stroke="red" stroke-width="1" fill="red" />
<circle cx="584.787" cy="481.522" r="1" stroke="red" stroke-width="1" fill="red" />
<circle cx="66.850" cy="455.977" r="1" stroke="red" stroke-width="1" fill="red" />
<circle cx="389.731" cy="784.174" r="1" stroke="red" stroke-width="1" fill="red" />
</svg>
