<svg xmlns = "http://www.w3.org/2000/svg" width = "1000" height = "1000">
<g>
<polygon points = "23.110, 785.917 29.736, 798.159 96.883, 1000.000 0.000, 1000.000 0.000, 771.219 "
fill = "none" stroke = "black"/>
</g>
<g>
<polygon points = "820.465, 527.921 831.563, 528.656 815.026, 664.935 814.651, 664.879 "
fill = "none" stroke = "black"/>
</g>
<g>
<polygon points = "530.608, 839.293 511.629, 830.517 585.127, 816.252 599.593, 816.516 "
fill = "none" stroke = "black"/>
</g>
<g>
<polygon points = "61.892, 255.577 124.356, 214.879 124.883, 236.819 26.863, 413.326 13.184, 413.914 "
fill = "none" stroke = "black"/>
</g>
<g>
<polygon points = "776.627, 66.630 661.352, 67.954 647.338, 54.592 646.630, 39.550 655.816, 0.000 778.178, 0.000 "
fill = "none" stroke = "black"/>
</g>
<g>
<polygon points = "183.124, 543.398 169.777, 472.810 192.887, 371.153 219.506, 319.305 227.363, 307.991 292.032, 270.167 300.361, 271.858 252.644, 582.968 185.586, 549.020 184.406, 547.444 "
fill = "none" stroke = "black"/>
</g>
<g>
<polygon points = "799.006, 888.348 851.503, 886.528 889.198, 1000.000 804.942, 1000.000 "
fill = "none" stroke = "black"/>
</g>
<g>
<polygon points = "13.184, 413.914 26.863, 413.326 69.134, 426.428 116.969, 546.508 108.676, 547.396 0.000, 499.877 0.000, 417.036 "
fill = "none" stroke = "black"/>
</g>
<g>
<polygon points = "532.179, 982.532 535.698, 979.651 715.761, 925.259 725.173, 928.600 738.966, 1000.000 517.929, 1000.000 "
fill = "none" stroke = "black"/>
</g>
<g>
<polygon points = "331.940, 963.752 342.055, 914.101 376.236, 905.819 479.432, 964.956 503.740, 1000.000 337.747, 1000.000 "
fill = "none" stroke = "black"/>
</g>
<g>
<polygon points = "274.575, 240.344 310.110, 206.182 352.895, 201.770 377.226, 200.920 482.709, 217.627 300.361, 271.858 292.032, 270.167 "
fill = "none" stroke = "black"/>
</g>
<g>
<polygon points = "513.954, 33.536 646.630, 39.550 647.338, 54.592 592.878, 105.395 585.988, 105.249 514.517, 43.331 512.838, 38.084 "
fill = "none" stroke = "black"/>
</g>
<g>
<polygon points = "821.354, 493.678 805.968, 413.147 805.660, 409.771 894.325, 428.850 855.269, 530.798 835.449, 513.360 "
fill = "none" stroke = "black"/>
</g>
<g>
<polygon points = "130.993, 249.820 119.784, 395.957 108.740, 404.247 69.134, 426.428 26.863, 413.326 124.883, 236.819 "
fill = "none" stroke = "black"/>
</g>
<g>
<polygon points = "313.292, 202.876 352.895, 201.770 310.110, 206.182 "
fill = "none" stroke = "black"/>
</g>
<g>
<polygon points = "897.417, 279.665 837.036, 266.874 843.509, 146.555 886.426, 120.884 935.707, 155.644 "
fill = "none" stroke = "black"/>
</g>
<g>
<polygon points = "139.405, 947.325 331.940, 963.752 337.747, 1000.000 103.913, 1000.000 "
fill = "none" stroke = "black"/>
</g>
<g>
<polygon points = "843.002, 675.298 848.606, 689.730 824.528, 744.747 781.979, 763.987 766.457, 762.310 753.166, 752.377 814.651, 664.879 815.026, 664.935 "
fill = "none" stroke = "black"/>
</g>
<g>
<polygon points = ""
fill = "none" stroke = "black"/>
</g>
<g>
<polygon points = "863.703, 690.580 910.667, 645.102 1000.000, 629.197 1000.000, 748.325 "
fill = "none" stroke = "black"/>
</g>
<g>
<polygon points = "357.973, 19.160 187.971, 93.467 109.791, 0.000 359.867, 0.000 "
fill = "none" stroke = "black"/>
</g>
<g>
<polygon points = "698.647, 191.127 723.363, 163.867 737.339, 159.998 788.967, 279.054 735.425, 305.043 667.332, 254.760 "
fill = "none" stroke = "black"/>
</g>
<g>
<polygon points = "637.761, 850.665 647.608, 850.673 715.761, 925.259 535.698, 979.651 "
fill = "none" stroke = "black"/>
</g>
<g>
<polygon points = "700.213, 144.918 615.865, 131.504 592.878, 105.395 647.338, 54.592 661.352, 67.954 "
fill = "none" stroke = "black"/>
</g>
<g>
<polygon points = "202.280, 629.725 183.064, 626.623 142.996, 595.676 136.491, 577.218 184.406, 547.444 185.586, 549.020 "
fill = "none" stroke = "black"/>
</g>
<g>
<polygon points = ""
fill = "none" stroke = "black"/>
</g>
<g>
<polygon points = "179.693, 730.249 179.819, 730.080 274.378, 716.296 302.582, 753.305 228.344, 791.307 "
fill = "none" stroke = "black"/>
</g>
<g>
<polygon points = "312.469, 877.743 311.550, 874.635 329.385, 765.926 341.115, 767.334 407.037, 821.246 376.236, 905.819 342.055, 914.101 "
fill = "none" stroke = "black"/>
</g>
<g>
<polygon points = "512.838, 38.084 514.517, 43.331 502.064, 165.834 500.028, 169.770 425.991, 121.886 394.437, 80.052 "
fill = "none" stroke = "black"/>
</g>
<g>
<polygon points = "903.761, 820.891 905.127, 821.110 932.622, 901.512 900.134, 1000.000 889.198, 1000.000 851.503, 886.528 "
fill = "none" stroke = "black"/>
</g>
<g>
<polygon points = "911.921, 423.726 943.556, 435.252 930.261, 538.615 914.712, 551.387 871.557, 571.008 855.269, 530.798 894.325, 428.850 "
fill = "none" stroke = "black"/>
</g>
<g>
<polygon points = ""
fill = "none" stroke = "black"/>
</g>
<g>
<polygon points = "930.261, 538.615 943.556, 435.252 1000.000, 420.903 1000.000, 541.347 "
fill = "none" stroke = "black"/>
</g>
<g>
<polygon points = "148.072, 926.226 312.469, 877.743 342.055, 914.101 331.940, 963.752 139.405, 947.325 "
fill = "none" stroke = "black"/>
</g>
<g>
<polygon points = "932.622, 901.512 905.127, 821.110 1000.000, 815.476 1000.000, 920.827 "
fill = "none" stroke = "black"/>
</g>
<g>
<polygon points = "469.301, 830.345 417.965, 814.610 341.190, 767.332 342.963, 710.464 585.127, 816.252 511.629, 830.517 "
fill = "none" stroke = "black"/>
</g>
<g>
<polygon points = "370.772, 69.772 317.257, 169.685 190.199, 105.011 187.971, 93.467 357.973, 19.160 "
fill = "none" stroke = "black"/>
</g>
<g>
<polygon points = ""
fill = "none" stroke = "black"/>
</g>
<g>
<polygon points = "900.134, 1000.000 932.622, 901.512 1000.000, 920.827 1000.000, 1000.000 "
fill = "none" stroke = "black"/>
</g>
<g>
<polygon points = "787.807, 130.193 843.509, 146.555 837.036, 266.874 812.864, 292.546 788.967, 279.054 737.339, 159.998 "
fill = "none" stroke = "black"/>
</g>
<g>
<polygon points = "903.761, 820.891 851.503, 886.528 799.006, 888.348 776.689, 882.205 781.979, 763.987 824.528, 744.747 "
fill = "none" stroke = "black"/>
</g>
<g>
<polygon points = "61.892, 255.577 13.184, 413.914 0.000, 417.036 0.000, 223.685 "
fill = "none" stroke = "black"/>
</g>
<g>
<polygon points = "911.208, 405.172 911.921, 423.726 894.325, 428.850 805.660, 409.771 780.155, 344.814 802.214, 314.436 "
fill = "none" stroke = "black"/>
</g>
<g>
<polygon points = "802.214, 314.436 780.155, 344.814 735.425, 305.043 788.967, 279.054 812.864, 292.546 "
fill = "none" stroke = "black"/>
</g>
<g>
<polygon points = "935.707, 155.644 886.426, 120.884 913.775, 0.000 1000.000, 0.000 1000.000, 175.854 "
fill = "none" stroke = "black"/>
</g>
<g>
<polygon points = "198.934, 640.963 208.982, 644.291 255.926, 681.701 274.378, 716.296 179.819, 730.080 "
fill = "none" stroke = "black"/>
</g>
<g>
<polygon points = "174.749, 519.946 166.077, 485.311 169.777, 472.810 183.124, 543.398 "
fill = "none" stroke = "black"/>
</g>
<g>
<polygon points = ""
fill = "none" stroke = "black"/>
</g>
<g>
<polygon points = "317.257, 169.685 370.772, 69.772 394.437, 80.052 425.991, 121.886 377.226, 200.920 352.895, 201.770 313.292, 202.876 "
fill = "none" stroke = "black"/>
</g>
<g>
<polygon points = "208.982, 644.291 198.934, 640.963 183.064, 626.623 202.280, 629.725 "
fill = "none" stroke = "black"/>
</g>
<g>
<polygon points = "342.963, 710.464 336.715, 698.661 483.838, 443.230 805.968, 413.147 821.354, 493.678 820.465, 527.921 814.651, 664.879 753.166, 752.377 613.206, 815.714 599.593, 816.516 585.127, 816.252 "
fill = "none" stroke = "black"/>
</g>
<g>
<polygon points = "224.433, 805.787 228.344, 791.307 302.582, 753.305 329.385, 765.926 311.550, 874.635 "
fill = "none" stroke = "black"/>
</g>
<g>
<polygon points = "159.310, 493.321 108.740, 404.247 119.784, 395.957 192.887, 371.153 169.777, 472.810 166.077, 485.311 "
fill = "none" stroke = "black"/>
</g>
<g>
<polygon points = "776.689, 882.205 799.006, 888.348 804.942, 1000.000 738.966, 1000.000 725.173, 928.600 "
fill = "none" stroke = "black"/>
</g>
<g>
<polygon points = "483.838, 443.230 510.641, 216.679 522.920, 218.544 587.266, 231.843 667.332, 254.760 735.425, 305.043 780.155, 344.814 805.660, 409.771 805.968, 413.147 "
fill = "none" stroke = "black"/>
</g>
<g>
<polygon points = "939.830, 309.797 897.417, 279.665 935.707, 155.644 1000.000, 175.854 1000.000, 311.877 "
fill = "none" stroke = "black"/>
</g>
<g>
<polygon points = "502.064, 165.834 514.517, 43.331 585.988, 105.249 "
fill = "none" stroke = "black"/>
</g>
<g>
<polygon points = "619.494, 184.595 611.619, 176.727 615.865, 131.504 700.213, 144.918 723.363, 163.867 698.647, 191.127 "
fill = "none" stroke = "black"/>
</g>
<g>
<polygon points = "169.374, 871.942 118.953, 741.037 136.486, 721.537 179.693, 730.249 228.344, 791.307 224.433, 805.787 "
fill = "none" stroke = "black"/>
</g>
<g>
<polygon points = "766.457, 762.310 781.979, 763.987 776.689, 882.205 725.173, 928.600 715.761, 925.259 647.608, 850.673 "
fill = "none" stroke = "black"/>
</g>
<g>
<polygon points = "4.614, 692.080 111.229, 668.670 136.486, 721.537 118.953, 741.037 23.110, 785.917 0.000, 771.219 0.000, 694.986 "
fill = "none" stroke = "black"/>
</g>
<g>
<polygon points = "108.676, 547.396 4.614, 692.080 0.000, 694.986 0.000, 499.877 "
fill = "none" stroke = "black"/>
</g>
<g>
<polygon points = "78.457, 182.760 125.348, 210.579 124.356, 214.879 61.892, 255.577 0.000, 223.685 0.000, 182.147 "
fill = "none" stroke = "black"/>
</g>
<g>
<polygon points = "905.127, 821.110 903.761, 820.891 824.528, 744.747 848.606, 689.730 863.703, 690.580 1000.000, 748.325 1000.000, 815.476 "
fill = "none" stroke = "black"/>
</g>
<g>
<polygon points = "111.229, 668.670 142.996, 595.676 183.064, 626.623 198.934, 640.963 179.819, 730.080 179.693, 730.249 136.486, 721.537 "
fill = "none" stroke = "black"/>
</g>
<g>
<polygon points = "911.208, 405.172 802.214, 314.436 812.864, 292.546 837.036, 266.874 897.417, 279.665 939.830, 309.797 "
fill = "none" stroke = "black"/>
</g>
<g>
<polygon points = "125.348, 210.579 169.051, 206.483 245.548, 249.008 227.363, 307.991 219.506, 319.305 130.993, 249.820 124.883, 236.819 124.356, 214.879 "
fill = "none" stroke = "black"/>
</g>
<g>
<polygon points = "288.173, 663.578 336.715, 698.661 342.963, 710.464 341.190, 767.332 341.115, 767.334 329.385, 765.926 302.582, 753.305 274.378, 716.296 255.926, 681.701 "
fill = "none" stroke = "black"/>
</g>
<g>
<polygon points = "479.432, 964.956 469.301, 830.345 511.629, 830.517 530.608, 839.293 532.179, 982.532 517.929, 1000.000 503.740, 1000.000 "
fill = "none" stroke = "black"/>
</g>
<g>
<polygon points = "500.028, 169.770 502.064, 165.834 585.988, 105.249 592.878, 105.395 615.865, 131.504 611.619, 176.727 522.920, 218.544 510.641, 216.679 506.450, 215.248 "
fill = "none" stroke = "black"/>
</g>
<g>
<polygon points = "646.630, 39.550 513.954, 33.536 515.466, 0.000 655.816, 0.000 "
fill = "none" stroke = "black"/>
</g>
<g>
<polygon points = "613.206, 815.714 637.761, 850.665 535.698, 979.651 532.179, 982.532 530.608, 839.293 599.593, 816.516 "
fill = "none" stroke = "black"/>
</g>
<g>
<polygon points = "910.667, 645.102 914.712, 551.387 930.261, 538.615 1000.000, 541.347 1000.000, 629.197 "
fill = "none" stroke = "black"/>
</g>
<g>
<polygon points = "159.310, 493.321 147.552, 510.301 117.256, 546.610 116.969, 546.508 69.134, 426.428 108.740, 404.247 "
fill = "none" stroke = "black"/>
</g>
<g>
<polygon points = "147.552, 510.301 159.310, 493.321 166.077, 485.311 174.749, 519.946 "
fill = "none" stroke = "black"/>
</g>
<g>
<polygon points = "513.954, 33.536 512.838, 38.084 394.437, 80.052 370.772, 69.772 357.973, 19.160 359.867, 0.000 515.466, 0.000 "
fill = "none" stroke = "black"/>
</g>
<g>
<polygon points = "118.953, 741.037 169.374, 871.942 151.200, 907.652 29.736, 798.159 23.110, 785.917 "
fill = "none" stroke = "black"/>
</g>
<g>
<polygon points = "245.548, 249.008 274.575, 240.344 292.032, 270.167 227.363, 307.991 "
fill = "none" stroke = "black"/>
</g>
<g>
<polygon points = "219.506, 319.305 192.887, 371.153 119.784, 395.957 130.993, 249.820 "
fill = "none" stroke = "black"/>
</g>
<g>
<polygon points = "587.266, 231.843 619.494, 184.595 698.647, 191.127 667.332, 254.760 "
fill = "none" stroke = "black"/>
</g>
<g>
<polygon points = "136.491, 577.218 117.256, 546.610 147.552, 510.301 174.749, 519.946 183.124, 543.398 184.406, 547.444 "
fill = "none" stroke = "black"/>
</g>
<g>
<polygon points = "407.037, 821.246 341.115, 767.334 341.190, 767.332 417.965, 814.610 "
fill = "none" stroke = "black"/>
</g>
<g>
<polygon points = "78.457, 182.760 0.000, 182.147 0.000, 0.000 106.943, 0.000 "
fill = "none" stroke = "black"/>
</g>
<g>
<polygon points = "407.037, 821.246 417.965, 814.610 469.301, 830.345 479.432, 964.956 376.236, 905.819 "
fill = "none" stroke = "black"/>
</g>
<g>
<polygon points = "910.667, 645.102 863.703, 690.580 848.606, 689.730 843.002, 675.298 871.557, 571.008 914.712, 551.387 "
fill = "none" stroke = "black"/>
</g>
<g>
<polygon points = "187.971, 93.467 190.199, 105.011 169.051, 206.483 125.348, 210.579 78.457, 182.760 106.943, 0.000 109.791, 0.000 "
fill = "none" stroke = "black"/>
</g>
<g>
<polygon points = "151.200, 907.652 148.072, 926.226 139.405, 947.325 103.913, 1000.000 96.883, 1000.000 29.736, 798.159 "
fill = "none" stroke = "black"/>
</g>
<g>
<polygon points = "108.676, 547.396 116.969, 546.508 117.256, 546.610 136.491, 577.218 142.996, 595.676 111.229, 668.670 4.614, 692.080 "
fill = "none" stroke = "black"/>
</g>
<g>
<polygon points = "151.200, 907.652 169.374, 871.942 224.433, 805.787 311.550, 874.635 312.469, 877.743 148.072, 926.226 "
fill = "none" stroke = "black"/>
</g>
<g>
<polygon points = "871.557, 571.008 843.002, 675.298 815.026, 664.935 831.563, 528.656 835.449, 513.360 855.269, 530.798 "
fill = "none" stroke = "black"/>
</g>
<g>
<polygon points = "288.173, 663.578 255.926, 681.701 208.982, 644.291 202.280, 629.725 185.586, 549.020 252.644, 582.968 "
fill = "none" stroke = "black"/>
</g>
<g>
<polygon points = "886.426, 120.884 843.509, 146.555 787.807, 130.193 776.627, 66.630 778.178, 0.000 913.775, 0.000 "
fill = "none" stroke = "black"/>
</g>
<g>
<polygon points = "613.206, 815.714 753.166, 752.377 766.457, 762.310 647.608, 850.673 637.761, 850.665 "
fill = "none" stroke = "black"/>
</g>
<g>
<polygon points = "787.807, 130.193 737.339, 159.998 723.363, 163.867 700.213, 144.918 661.352, 67.954 776.627, 66.630 "
fill = "none" stroke = "black"/>
</g>
<g>
<polygon points = "245.548, 249.008 169.051, 206.483 190.199, 105.011 317.257, 169.685 313.292, 202.876 310.110, 206.182 274.575, 240.344 "
fill = "none" stroke = "black"/>
</g>
<g>
<polygon points = "506.450, 215.248 510.641, 216.679 483.838, 443.230 336.715, 698.661 288.173, 663.578 252.644, 582.968 300.361, 271.858 482.709, 217.627 "
fill = "none" stroke = "black"/>
</g>
<g>
<polygon points = "611.619, 176.727 619.494, 184.595 587.266, 231.843 522.920, 218.544 "
fill = "none" stroke = "black"/>
</g>
<g>
<polygon points = "821.354, 493.678 835.449, 513.360 831.563, 528.656 820.465, 527.921 "
fill = "none" stroke = "black"/>
</g>
<g>
<polygon points = "943.556, 435.252 911.921, 423.726 911.208, 405.172 939.830, 309.797 1000.000, 311.877 1000.000, 420.903 "
fill = "none" stroke = "black"/>
</g>
<g>
<polygon points = "425.991, 121.886 500.028, 169.770 506.450, 215.248 482.709, 217.627 377.226, 200.920 "
fill = "none" stroke = "black"/>
</g>
<circle cx="0.008" cy="868.462" r="1" stroke="red" stroke-width="1" fill="red" />
<circle cx="755.605" cy="541.350" r="1" stroke="red" stroke-width="1" fill="red" />
<circle cx="532.767" cy="781.041" r="1" stroke="red" stroke-width="1" fill="red" />
<circle cx="47.045" cy="321.135" r="1" stroke="red" stroke-width="1" fill="red" />
<circle cx="679.296" cy="65.307" r="1" stroke="red" stroke-width="1" fill="red" />
<circle cx="383.502" cy="480.584" r="1" stroke="red" stroke-width="1" fill="red" />
<circle cx="830.965" cy="965.428" r="1" stroke="red" stroke-width="1" fill="red" />
<circle cx="53.462" cy="470.300" r="1" stroke="red" stroke-width="1" fill="red" />
<circle cx="671.149" cy="992.302" r="1" stroke="red" stroke-width="1" fill="red" />
<circle cx="383.416" cy="933.158" r="1" stroke="red" stroke-width="1" fill="red" />
<circle cx="417.486" cy="313.227" r="1" stroke="red" stroke-width="1" fill="red" />
<circle cx="588.977" cy="69.564" r="1" stroke="red" stroke-width="1" fill="red" />
<circle cx="846.167" cy="473.071" r="1" stroke="red" stroke-width="1" fill="red" />
<circle cx="91.965" cy="346.081" r="1" stroke="red" stroke-width="1" fill="red" />
<circle cx="415.999" cy="298.809" r="1" stroke="red" stroke-width="1" fill="red" />
<circle cx="910.321" cy="237.802" r="1" stroke="red" stroke-width="1" fill="red" />
<circle cx="262.453" cy="952.535" r="1" stroke="red" stroke-width="1" fill="red" />
<circle cx="736.082" cy="671.766" r="1" stroke="red" stroke-width="1" fill="red" />
<circle cx="632.639" cy="243.590" r="1" stroke="red" stroke-width="1" fill="red" />
<circle cx="991.037" cy="634.661" r="1" stroke="red" stroke-width="1" fill="red" />
<circle cx="247.039" cy="17.450" r="1" stroke="red" stroke-width="1" fill="red" />
<circle cx="722.660" cy="246.644" r="1" stroke="red" stroke-width="1" fill="red" />
<circle cx="651.519" cy="927.314" r="1" stroke="red" stroke-width="1" fill="red" />
<circle cx="631.635" cy="115.293" r="1" stroke="red" stroke-width="1" fill="red" />
<circle cx="272.710" cy="563.589" r="1" stroke="red" stroke-width="1" fill="red" />
<circle cx="766.495" cy="522.268" r="1" stroke="red" stroke-width="1" fill="red" />
<circle cx="237.774" cy="725.093" r="1" stroke="red" stroke-width="1" fill="red" />
<circle cx="359.265" cy="833.493" r="1" stroke="red" stroke-width="1" fill="red" />
<circle cx="486.517" cy="102.344" r="1" stroke="red" stroke-width="1" fill="red" />
<circle cx="909.208" cy="939.436" r="1" stroke="red" stroke-width="1" fill="red" />
<circle cx="904.653" cy="495.477" r="1" stroke="red" stroke-width="1" fill="red" />
<circle cx="516.292" cy="680.967" r="1" stroke="red" stroke-width="1" fill="red" />
<circle cx="986.642" cy="506.023" r="1" stroke="red" stroke-width="1" fill="red" />
<circle cx="266.145" cy="909.267" r="1" stroke="red" stroke-width="1" fill="red" />
<circle cx="947.764" cy="926.251" r="1" stroke="red" stroke-width="1" fill="red" />
<circle cx="500.707" cy="615.858" r="1" stroke="red" stroke-width="1" fill="red" />
<circle cx="277.082" cy="86.183" r="1" stroke="red" stroke-width="1" fill="red" />
<circle cx="529.747" cy="535.554" r="1" stroke="red" stroke-width="1" fill="red" />
<circle cx="940.980" cy="949.916" r="1" stroke="red" stroke-width="1" fill="red" />
<circle cx="761.514" cy="229.795" r="1" stroke="red" stroke-width="1" fill="red" />
<circle cx="827.817" cy="874.635" r="1" stroke="red" stroke-width="1" fill="red" />
<circle cx="15.868" cy="311.545" r="1" stroke="red" stroke-width="1" fill="red" />
<circle cx="868.247" cy="370.457" r="1" stroke="red" stroke-width="1" fill="red" />
<circle cx="736.225" cy="274.588" r="1" stroke="red" stroke-width="1" fill="red" />
<circle cx="999.458" cy="111.428" r="1" stroke="red" stroke-width="1" fill="red" />
<circle cx="233.195" cy="693.678" r="1" stroke="red" stroke-width="1" fill="red" />
<circle cx="351.015" cy="486.726" r="1" stroke="red" stroke-width="1" fill="red" />
<circle cx="591.114" cy="154.018" r="1" stroke="red" stroke-width="1" fill="red" />
<circle cx="412.081" cy="158.489" r="1" stroke="red" stroke-width="1" fill="red" />
<circle cx="269.317" cy="584.605" r="1" stroke="red" stroke-width="1" fill="red" />
<circle cx="537.304" cy="532.083" r="1" stroke="red" stroke-width="1" fill="red" />
<circle cx="287.212" cy="821.672" r="1" stroke="red" stroke-width="1" fill="red" />
<circle cx="153.720" cy="428.345" r="1" stroke="red" stroke-width="1" fill="red" />
<circle cx="802.406" cy="966.946" r="1" stroke="red" stroke-width="1" fill="red" />
<circle cx="534.450" cy="501.520" r="1" stroke="red" stroke-width="1" fill="red" />
<circle cx="955.361" cy="251.707" r="1" stroke="red" stroke-width="1" fill="red" />
<circle cx="554.584" cy="109.263" r="1" stroke="red" stroke-width="1" fill="red" />
<circle cx="624.849" cy="157.960" r="1" stroke="red" stroke-width="1" fill="red" />
<circle cx="159.768" cy="787.248" r="1" stroke="red" stroke-width="1" fill="red" />
<circle cx="714.710" cy="869.573" r="1" stroke="red" stroke-width="1" fill="red" />
<circle cx="90.990" cy="725.412" r="1" stroke="red" stroke-width="1" fill="red" />
<circle cx="3.000" cy="585.707" r="1" stroke="red" stroke-width="1" fill="red" />
<circle cx="26.876" cy="290.180" r="1" stroke="red" stroke-width="1" fill="red" />
<circle cx="937.897" cy="760.089" r="1" stroke="red" stroke-width="1" fill="red" />
<circle cx="180.896" cy="682.460" r="1" stroke="red" stroke-width="1" fill="red" />
<circle cx="886.991" cy="347.941" r="1" stroke="red" stroke-width="1" fill="red" />
<circle cx="150.335" cy="318.654" r="1" stroke="red" stroke-width="1" fill="red" />
<circle cx="385.815" cy="612.275" r="1" stroke="red" stroke-width="1" fill="red" />
<circle cx="499.741" cy="852.467" r="1" stroke="red" stroke-width="1" fill="red" />
<circle cx="587.187" cy="154.424" r="1" stroke="red" stroke-width="1" fill="red" />
<circle cx="590.109" cy="44.591" r="1" stroke="red" stroke-width="1" fill="red" />
<circle cx="556.146" cy="851.848" r="1" stroke="red" stroke-width="1" fill="red" />
<circle cx="983.305" cy="591.233" r="1" stroke="red" stroke-width="1" fill="red" />
<circle cx="141.820" cy="435.101" r="1" stroke="red" stroke-width="1" fill="red" />
<circle cx="252.126" cy="511.485" r="1" stroke="red" stroke-width="1" fill="red" />
<circle cx="464.031" cy="38.905" r="1" stroke="red" stroke-width="1" fill="red" />
<circle cx="126.031" cy="800.243" r="1" stroke="red" stroke-width="1" fill="red" />
<circle cx="319.250" cy="370.731" r="1" stroke="red" stroke-width="1" fill="red" />
<circle cx="126.712" cy="348.746" r="1" stroke="red" stroke-width="1" fill="red" />
<circle cx="621.634" cy="196.927" r="1" stroke="red" stroke-width="1" fill="red" />
<circle cx="247.842" cy="523.568" r="1" stroke="red" stroke-width="1" fill="red" />
<circle cx="389.314" cy="796.750" r="1" stroke="red" stroke-width="1" fill="red" />
<circle cx="28.375" cy="98.327" r="1" stroke="red" stroke-width="1" fill="red" />
<circle cx="426.497" cy="857.979" r="1" stroke="red" stroke-width="1" fill="red" />
<circle cx="947.487" cy="589.687" r="1" stroke="red" stroke-width="1" fill="red" />
<circle cx="131.189" cy="114.352" r="1" stroke="red" stroke-width="1" fill="red" />
<circle cx="92.174" cy="837.801" r="1" stroke="red" stroke-width="1" fill="red" />
<circle cx="71.064" cy="634.661" r="1" stroke="red" stroke-width="1" fill="red" />
<circle cx="253.057" cy="864.891" r="1" stroke="red" stroke-width="1" fill="red" />
<circle cx="783.153" cy="544.693" r="1" stroke="red" stroke-width="1" fill="red" />
<circle cx="349.524" cy="547.700" r="1" stroke="red" stroke-width="1" fill="red" />
<circle cx="808.945" cy="68.326" r="1" stroke="red" stroke-width="1" fill="red" />
<circle cx="651.646" cy="784.752" r="1" stroke="red" stroke-width="1" fill="red" />
<circle cx="679.592" cy="91.078" r="1" stroke="red" stroke-width="1" fill="red" />
<circle cx="250.126" cy="139.140" r="1" stroke="red" stroke-width="1" fill="red" />
<circle cx="471.262" cy="494.044" r="1" stroke="red" stroke-width="1" fill="red" />
<circle cx="600.394" cy="182.439" r="1" stroke="red" stroke-width="1" fill="red" />
<circle cx="755.844" cy="537.755" r="1" stroke="red" stroke-width="1" fill="red" />
<circle cx="951.367" cy="367.261" r="1" stroke="red" stroke-width="1" fill="red" />
<circle cx="439.330" cy="175.303" r="1" stroke="red" stroke-width="1" fill="red" />
</svg>
