<svg xmlns = "http://www.w3.org/2000/svg" width = "1000" height = "1000">
<g>
<polygon points = "134.947, 848.566 0.000, 994.814 0.000, 762.738 "
fill = "none" stroke = "black"/>
</g>
<g>
<polygon points = "455.121, 554.487 437.384, 516.395 448.182, 413.437 497.878, 459.962 "
fill = "none" stroke = "black"/>
</g>
<g>
<polygon points = "100.736, 286.784 101.481, 317.808 0.000, 372.902 0.000, 286.044 "
fill = "none" stroke = "black"/>
</g>
<g>
<polygon points = "784.097, 694.048 794.893, 600.772 832.392, 577.627 939.334, 551.082 1000.000, 667.811 1000.000, 689.229 "
fill = "none" stroke = "black"/>
</g>
<g>
<polygon points = "624.772, 1000.000 623.835, 949.270 750.917, 793.850 1000.000, 923.563 1000.000, 1000.000 "
fill = "none" stroke = "black"/>
</g>
<g>
<polygon points = "617.303, 341.378 599.973, 374.503 404.751, 334.436 376.542, 310.345 478.111, 240.221 553.467, 264.307 "
fill = "none" stroke = "black"/>
</g>
<g>
<polygon points = "335.090, 892.802 459.295, 862.705 486.798, 877.881 328.735, 1000.000 313.251, 1000.000 "
fill = "none" stroke = "black"/>
</g>
<g>
<polygon points = "631.703, 491.498 599.206, 436.799 599.973, 374.503 617.303, 341.378 678.830, 321.485 767.077, 340.752 677.897, 500.272 "
fill = "none" stroke = "black"/>
</g>
<g>
<polygon points = "887.223, 434.501 832.392, 577.627 794.893, 600.772 775.096, 566.462 816.672, 419.320 "
fill = "none" stroke = "black"/>
</g>
<g>
<polygon points = "794.893, 600.772 784.097, 694.048 752.518, 744.976 537.387, 628.110 631.703, 491.498 677.897, 500.272 775.096, 566.462 "
fill = "none" stroke = "black"/>
</g>
<g>
<polygon points = "983.244, 330.359 837.017, 283.980 843.249, 168.156 1000.000, 154.652 1000.000, 326.692 "
fill = "none" stroke = "black"/>
</g>
<g>
<polygon points = "146.642, 155.990 139.038, 214.798 100.736, 286.784 0.000, 286.044 0.000, 0.000 25.898, 0.000 "
fill = "none" stroke = "black"/>
</g>
<g>
<polygon points = "614.044, 192.404 683.424, 186.093 678.830, 321.485 617.303, 341.378 553.467, 264.307 603.733, 197.660 "
fill = "none" stroke = "black"/>
</g>
<g>
<polygon points = "325.630, 653.903 386.397, 624.180 438.448, 628.791 424.003, 804.040 323.723, 796.477 282.629, 749.752 "
fill = "none" stroke = "black"/>
</g>
<g>
<polygon points = "767.423, 340.827 678.830, 321.485 683.424, 186.093 704.747, 162.575 777.107, 329.440 "
fill = "none" stroke = "black"/>
</g>
<g>
<polygon points = "177.663, 436.804 0.000, 438.247 0.000, 372.902 101.481, 317.808 "
fill = "none" stroke = "black"/>
</g>
<g>
<polygon points = "198.971, 445.838 249.138, 420.773 271.719, 415.908 386.397, 624.180 325.630, 653.903 149.065, 600.271 "
fill = "none" stroke = "black"/>
</g>
<g>
<polygon points = "486.798, 877.881 459.295, 862.705 424.003, 804.040 438.448, 628.791 454.530, 623.265 498.750, 632.886 541.813, 894.430 "
fill = "none" stroke = "black"/>
</g>
<g>
<polygon points = "459.295, 862.705 335.090, 892.802 312.479, 865.015 323.723, 796.477 424.003, 804.040 "
fill = "none" stroke = "black"/>
</g>
<g>
<polygon points = "843.249, 168.156 783.053, 109.199 840.269, 0.000 1000.000, 0.000 1000.000, 154.652 "
fill = "none" stroke = "black"/>
</g>
<g>
<polygon points = "939.334, 551.082 832.392, 577.627 887.223, 434.501 898.252, 431.289 983.334, 514.941 "
fill = "none" stroke = "black"/>
</g>
<g>
<polygon points = "386.492, 62.619 319.472, 61.615 212.512, 0.000 406.156, 0.000 "
fill = "none" stroke = "black"/>
</g>
<g>
<polygon points = "141.279, 847.725 161.297, 828.654 312.479, 865.015 335.090, 892.802 313.251, 1000.000 222.258, 1000.000 "
fill = "none" stroke = "black"/>
</g>
<g>
<polygon points = "149.065, 600.271 137.396, 609.842 0.000, 620.319 0.000, 438.247 177.663, 436.804 198.971, 445.838 "
fill = "none" stroke = "black"/>
</g>
<g>
<polygon points = "319.472, 61.615 237.441, 185.327 146.642, 155.990 25.898, 0.000 212.512, 0.000 "
fill = "none" stroke = "black"/>
</g>
<g>
<polygon points = "589.367, 19.301 497.365, 137.665 394.091, 83.297 386.492, 62.619 406.156, 0.000 585.042, 0.000 "
fill = "none" stroke = "black"/>
</g>
<g>
<polygon points = "783.053, 109.199 843.249, 168.156 837.017, 283.980 777.107, 329.440 704.747, 162.575 728.268, 117.827 "
fill = "none" stroke = "black"/>
</g>
<g>
<polygon points = "134.947, 848.566 141.279, 847.725 222.258, 1000.000 0.000, 1000.000 0.000, 994.814 "
fill = "none" stroke = "black"/>
</g>
<g>
<polygon points = "767.537, 340.692 777.107, 329.440 837.017, 283.980 983.244, 330.359 898.252, 431.289 887.223, 434.501 816.672, 419.320 "
fill = "none" stroke = "black"/>
</g>
<g>
<polygon points = "783.053, 109.199 728.268, 117.827 627.113, 53.206 589.367, 19.301 585.042, 0.000 840.269, 0.000 "
fill = "none" stroke = "black"/>
</g>
<g>
<polygon points = "282.629, 749.752 178.431, 793.727 137.396, 609.842 149.065, 600.271 325.630, 653.903 "
fill = "none" stroke = "black"/>
</g>
<g>
<polygon points = "599.206, 436.799 497.878, 459.962 448.182, 413.437 404.751, 334.436 599.973, 374.503 "
fill = "none" stroke = "black"/>
</g>
<g>
<polygon points = "497.874, 159.574 478.111, 240.221 376.542, 310.345 368.048, 310.438 320.659, 235.943 394.091, 83.297 497.365, 137.665 "
fill = "none" stroke = "black"/>
</g>
<g>
<polygon points = "368.048, 310.438 376.542, 310.345 404.751, 334.436 448.182, 413.437 437.384, 516.395 285.613, 404.599 "
fill = "none" stroke = "black"/>
</g>
<g>
<polygon points = "178.431, 793.727 282.629, 749.752 323.723, 796.477 312.479, 865.015 161.297, 828.654 "
fill = "none" stroke = "black"/>
</g>
<g>
<polygon points = "553.467, 264.307 478.111, 240.221 497.874, 159.574 603.733, 197.660 "
fill = "none" stroke = "black"/>
</g>
<g>
<polygon points = "631.703, 491.498 537.387, 628.110 498.750, 632.886 454.530, 623.265 455.121, 554.487 497.878, 459.962 599.206, 436.799 "
fill = "none" stroke = "black"/>
</g>
<g>
<polygon points = "767.537, 340.692 816.672, 419.320 775.096, 566.462 677.897, 500.272 767.077, 340.752 "
fill = "none" stroke = "black"/>
</g>
<g>
<polygon points = "728.268, 117.827 704.747, 162.575 683.424, 186.093 614.044, 192.404 627.113, 53.206 "
fill = "none" stroke = "black"/>
</g>
<g>
<polygon points = "368.048, 310.438 285.613, 404.599 271.719, 415.908 249.138, 420.773 139.038, 214.798 146.642, 155.990 237.441, 185.327 320.659, 235.943 "
fill = "none" stroke = "black"/>
</g>
<g>
<polygon points = "137.396, 609.842 178.431, 793.727 161.297, 828.654 141.279, 847.725 134.947, 848.566 0.000, 762.738 0.000, 620.319 "
fill = "none" stroke = "black"/>
</g>
<g>
<polygon points = "541.813, 894.430 623.835, 949.270 624.772, 1000.000 328.735, 1000.000 486.798, 877.881 "
fill = "none" stroke = "black"/>
</g>
<g>
<polygon points = "750.917, 793.850 752.518, 744.976 784.097, 694.048 1000.000, 689.229 1000.000, 923.563 "
fill = "none" stroke = "black"/>
</g>
<g>
<polygon points = "394.091, 83.297 320.659, 235.943 237.441, 185.327 319.472, 61.615 386.492, 62.619 "
fill = "none" stroke = "black"/>
</g>
<g>
<polygon points = "100.736, 286.784 139.038, 214.798 249.138, 420.773 198.971, 445.838 177.663, 436.804 101.481, 317.808 "
fill = "none" stroke = "black"/>
</g>
<g>
<polygon points = "455.121, 554.487 454.530, 623.265 438.448, 628.791 386.397, 624.180 271.719, 415.908 285.613, 404.599 437.384, 516.395 "
fill = "none" stroke = "black"/>
</g>
<g>
<polygon points = "627.113, 53.206 614.044, 192.404 603.733, 197.660 497.874, 159.574 497.365, 137.665 589.367, 19.301 "
fill = "none" stroke = "black"/>
</g>
<g>
<polygon points = "983.334, 514.941 898.252, 431.289 983.244, 330.359 1000.000, 326.692 1000.000, 511.786 "
fill = "none" stroke = "black"/>
</g>
<g>
<polygon points = "939.334, 551.082 983.334, 514.941 1000.000, 511.786 1000.000, 667.811 "
fill = "none" stroke = "black"/>
</g>
<g>
<polygon points = "750.917, 793.850 623.835, 949.270 541.813, 894.430 498.750, 632.886 537.387, 628.110 752.518, 744.976 "
fill = "none" stroke = "black"/>
</g>
</svg>
