<svg xmlns = "http://www.w3.org/2000/svg" width = "1000" height = "1000">
<g>
<polygon points = "29.575, 670.114 84.568, 743.482 139.037, 833.815 124.771, 926.855 101.340, 1000.000 0.000, 1000.000 0.000, 666.143 "
fill = "none" stroke = "black"/>
</g>
<g>
<polygon points = "857.768, 620.859 644.569, 588.943 647.058, 491.912 854.520, 610.305 "
fill = "none" stroke = "black"/>
</g>
<g>
<polygon points = "667.342, 790.393 516.125, 913.158 466.046, 863.989 432.191, 752.002 629.269, 719.556 "
fill = "none" stroke = "black"/>
</g>
<g>
<polygon points = "144.958, 189.721 32.476, 392.269 106.397, 151.967 "
fill = "none" stroke = "black"/>
</g>
<g>
<polygon points = "837.389, 84.823 719.495, 143.751 635.509, 63.669 632.509, 0.000 849.608, 0.000 "
fill = "none" stroke = "black"/>
</g>
<g>
<polygon points = "487.191, 415.108 437.239, 548.001 409.251, 572.250 375.240, 392.375 "
fill = "none" stroke = "black"/>
</g>
<g>
<polygon points = "744.598, 938.965 746.418, 930.398 855.630, 926.611 880.010, 1000.000 754.862, 1000.000 "
fill = "none" stroke = "black"/>
</g>
<g>
<polygon points = "155.288, 531.625 120.837, 596.683 29.575, 670.114 0.000, 666.143 0.000, 403.414 30.719, 396.140 191.705, 446.039 "
fill = "none" stroke = "black"/>
</g>
<g>
<polygon points = "754.862, 1000.000 542.542, 1000.000 744.598, 938.965 "
fill = "none" stroke = "black"/>
</g>
<g>
<polygon points = "516.125, 913.158 518.018, 1000.000 333.247, 1000.000 324.256, 943.875 334.013, 895.982 466.046, 863.989 "
fill = "none" stroke = "black"/>
</g>
<g>
<polygon points = "557.133, 379.791 487.191, 415.108 375.240, 392.375 256.655, 346.942 254.770, 328.268 531.230, 299.762 "
fill = "none" stroke = "black"/>
</g>
<g>
<polygon points = "635.509, 63.669 593.146, 103.187 546.953, 104.356 513.566, 0.000 632.509, 0.000 "
fill = "none" stroke = "black"/>
</g>
<g>
<polygon points = "888.392, 434.321 843.245, 552.166 752.409, 405.061 "
fill = "none" stroke = "black"/>
</g>
<g>
<polygon points = "244.948, 260.940 254.770, 328.268 256.655, 346.942 212.016, 429.161 191.705, 446.039 30.719, 396.140 32.476, 392.269 144.958, 189.721 "
fill = "none" stroke = "black"/>
</g>
<g>
<polygon points = "518.215, 248.700 531.230, 299.762 254.770, 328.268 244.948, 260.940 281.280, 237.203 503.575, 230.995 "
fill = "none" stroke = "black"/>
</g>
<g>
<polygon points = "836.479, 283.311 846.205, 102.545 1000.000, 211.023 1000.000, 335.174 "
fill = "none" stroke = "black"/>
</g>
<g>
<polygon points = "124.771, 926.855 324.256, 943.875 333.247, 1000.000 101.340, 1000.000 "
fill = "none" stroke = "black"/>
</g>
<g>
<polygon points = "858.844, 621.888 874.448, 729.106 708.670, 804.069 667.342, 790.393 629.269, 719.556 625.173, 621.714 626.431, 616.419 644.569, 588.943 857.768, 620.859 "
fill = "none" stroke = "black"/>
</g>
<g>
<polygon points = "557.133, 379.791 531.230, 299.762 518.215, 248.700 666.509, 179.952 679.198, 179.852 676.113, 270.757 635.246, 407.319 "
fill = "none" stroke = "black"/>
</g>
<g>
<polygon points = "942.580, 775.447 874.448, 729.106 858.844, 621.888 935.715, 574.179 1000.000, 571.982 1000.000, 783.968 "
fill = "none" stroke = "black"/>
</g>
<g>
<polygon points = "83.363, 125.268 0.000, 59.741 0.000, 0.000 369.955, 0.000 "
fill = "none" stroke = "black"/>
</g>
<g>
<polygon points = "679.198, 179.852 700.969, 164.765 734.617, 242.359 676.113, 270.757 "
fill = "none" stroke = "black"/>
</g>
<g>
<polygon points = "516.125, 913.158 667.342, 790.393 708.670, 804.069 746.418, 930.398 744.598, 938.965 542.542, 1000.000 518.018, 1000.000 "
fill = "none" stroke = "black"/>
</g>
<g>
<polygon points = "700.969, 164.765 679.198, 179.852 666.509, 179.952 593.146, 103.187 635.509, 63.669 719.495, 143.751 "
fill = "none" stroke = "black"/>
</g>
<g>
<polygon points = "191.705, 446.039 212.016, 429.161 342.211, 561.800 155.288, 531.625 "
fill = "none" stroke = "black"/>
</g>
<g>
<polygon points = "642.640, 413.169 745.711, 400.572 752.409, 405.061 843.245, 552.166 854.520, 610.305 647.058, 491.912 "
fill = "none" stroke = "black"/>
</g>
<g>
<polygon points = "267.343, 814.050 139.037, 833.815 84.568, 743.482 367.049, 702.303 "
fill = "none" stroke = "black"/>
</g>
<g>
<polygon points = "376.041, 694.195 432.191, 752.002 466.046, 863.989 334.013, 895.982 267.343, 814.050 367.049, 702.303 "
fill = "none" stroke = "black"/>
</g>
<g>
<polygon points = "546.953, 104.356 502.652, 194.027 386.725, 40.333 389.837, 0.000 513.566, 0.000 "
fill = "none" stroke = "black"/>
</g>
<g>
<polygon points = "903.291, 866.749 924.589, 929.032 901.179, 1000.000 880.010, 1000.000 855.630, 926.611 "
fill = "none" stroke = "black"/>
</g>
<g>
<polygon points = "956.246, 414.562 935.715, 574.179 858.844, 621.888 857.768, 620.859 854.520, 610.305 843.245, 552.166 888.392, 434.321 "
fill = "none" stroke = "black"/>
</g>
<g>
<polygon points = "629.269, 719.556 432.191, 752.002 376.041, 694.195 375.470, 681.484 625.173, 621.714 "
fill = "none" stroke = "black"/>
</g>
<g>
<polygon points = "935.715, 574.179 956.246, 414.562 1000.000, 376.350 1000.000, 571.982 "
fill = "none" stroke = "black"/>
</g>
<g>
<polygon points = "139.037, 833.815 267.343, 814.050 334.013, 895.982 324.256, 943.875 124.771, 926.855 "
fill = "none" stroke = "black"/>
</g>
<g>
<polygon points = "924.589, 929.032 903.291, 866.749 942.580, 775.447 1000.000, 783.968 1000.000, 950.650 "
fill = "none" stroke = "black"/>
</g>
<g>
<polygon points = "375.319, 680.962 386.428, 598.707 409.251, 572.250 437.239, 548.001 626.431, 616.419 625.173, 621.714 375.470, 681.484 "
fill = "none" stroke = "black"/>
</g>
<g>
<polygon points = "386.725, 40.333 281.280, 237.203 244.948, 260.940 144.958, 189.721 106.397, 151.967 83.363, 125.268 369.955, 0.000 389.837, 0.000 "
fill = "none" stroke = "black"/>
</g>
<g>
<polygon points = "557.133, 379.791 635.246, 407.319 642.640, 413.169 647.058, 491.912 644.569, 588.943 626.431, 616.419 437.239, 548.001 487.191, 415.108 "
fill = "none" stroke = "black"/>
</g>
<g>
<polygon points = "901.179, 1000.000 924.589, 929.032 1000.000, 950.650 1000.000, 1000.000 "
fill = "none" stroke = "black"/>
</g>
<g>
<polygon points = "837.389, 84.823 846.205, 102.545 836.479, 283.311 823.966, 292.805 734.617, 242.359 700.969, 164.765 719.495, 143.751 "
fill = "none" stroke = "black"/>
</g>
<g>
<polygon points = "874.448, 729.106 942.580, 775.447 903.291, 866.749 855.630, 926.611 746.418, 930.398 708.670, 804.069 "
fill = "none" stroke = "black"/>
</g>
<g>
<polygon points = "83.363, 125.268 106.397, 151.967 32.476, 392.269 30.719, 396.140 0.000, 403.414 0.000, 59.741 "
fill = "none" stroke = "black"/>
</g>
<g>
<polygon points = "956.246, 414.562 888.392, 434.321 752.409, 405.061 745.711, 400.572 823.966, 292.805 836.479, 283.311 1000.000, 335.174 1000.000, 376.350 "
fill = "none" stroke = "black"/>
</g>
<g>
<polygon points = "745.711, 400.572 642.640, 413.169 635.246, 407.319 676.113, 270.757 734.617, 242.359 823.966, 292.805 "
fill = "none" stroke = "black"/>
</g>
<g>
<polygon points = "846.205, 102.545 837.389, 84.823 849.608, 0.000 1000.000, 0.000 1000.000, 211.023 "
fill = "none" stroke = "black"/>
</g>
<g>
<polygon points = "29.575, 670.114 120.837, 596.683 375.319, 680.962 375.470, 681.484 376.041, 694.195 367.049, 702.303 84.568, 743.482 "
fill = "none" stroke = "black"/>
</g>
<g>
<polygon points = "256.655, 346.942 375.240, 392.375 409.251, 572.250 386.428, 598.707 342.211, 561.800 212.016, 429.161 "
fill = "none" stroke = "black"/>
</g>
<g>
<polygon points = "518.215, 248.700 503.575, 230.995 502.652, 194.027 546.953, 104.356 593.146, 103.187 666.509, 179.952 "
fill = "none" stroke = "black"/>
</g>
<g>
<polygon points = "503.575, 230.995 281.280, 237.203 386.725, 40.333 502.652, 194.027 "
fill = "none" stroke = "black"/>
</g>
<g>
<polygon points = "386.428, 598.707 375.319, 680.962 120.837, 596.683 155.288, 531.625 342.211, 561.800 "
fill = "none" stroke = "black"/>
</g>
<circle cx="0.008" cy="868.462" r="1" stroke="red" stroke-width="1" fill="red" />
<circle cx="755.605" cy="541.350" r="1" stroke="red" stroke-width="1" fill="red" />
<circle cx="532.767" cy="781.041" r="1" stroke="red" stroke-width="1" fill="red" />
<circle cx="47.045" cy="321.135" r="1" stroke="red" stroke-width="1" fill="red" />
<circle cx="679.296" cy="65.307" r="1" stroke="red" stroke-width="1" fill="red" />
<circle cx="383.502" cy="480.584" r="1" stroke="red" stroke-width="1" fill="red" />
<circle cx="830.965" cy="965.428" r="1" stroke="red" stroke-width="1" fill="red" />
<circle cx="53.462" cy="470.300" r="1" stroke="red" stroke-width="1" fill="red" />
<circle cx="671.149" cy="992.302" r="1" stroke="red" stroke-width="1" fill="red" />
<circle cx="383.416" cy="933.158" r="1" stroke="red" stroke-width="1" fill="red" />
<circle cx="417.486" cy="313.227" r="1" stroke="red" stroke-width="1" fill="red" />
<circle cx="588.977" cy="69.564" r="1" stroke="red" stroke-width="1" fill="red" />
<circle cx="846.167" cy="473.071" r="1" stroke="red" stroke-width="1" fill="red" />
<circle cx="91.965" cy="346.081" r="1" stroke="red" stroke-width="1" fill="red" />
<circle cx="415.999" cy="298.809" r="1" stroke="red" stroke-width="1" fill="red" />
<circle cx="910.321" cy="237.802" r="1" stroke="red" stroke-width="1" fill="red" />
<circle cx="262.453" cy="952.535" r="1" stroke="red" stroke-width="1" fill="red" />
<circle cx="736.082" cy="671.766" r="1" stroke="red" stroke-width="1" fill="red" />
<circle cx="632.639" cy="243.590" r="1" stroke="red" stroke-width="1" fill="red" />
<circle cx="991.037" cy="634.661" r="1" stroke="red" stroke-width="1" fill="red" />
<circle cx="247.039" cy="17.450" r="1" stroke="red" stroke-width="1" fill="red" />
<circle cx="722.660" cy="246.644" r="1" stroke="red" stroke-width="1" fill="red" />
<circle cx="651.519" cy="927.314" r="1" stroke="red" stroke-width="1" fill="red" />
<circle cx="631.635" cy="115.293" r="1" stroke="red" stroke-width="1" fill="red" />
<circle cx="272.710" cy="563.589" r="1" stroke="red" stroke-width="1" fill="red" />
<circle cx="766.495" cy="522.268" r="1" stroke="red" stroke-width="1" fill="red" />
<circle cx="237.774" cy="725.093" r="1" stroke="red" stroke-width="1" fill="red" />
<circle cx="359.265" cy="833.493" r="1" stroke="red" stroke-width="1" fill="red" />
<circle cx="486.517" cy="102.344" r="1" stroke="red" stroke-width="1" fill="red" />
<circle cx="909.208" cy="939.436" r="1" stroke="red" stroke-width="1" fill="red" />
<circle cx="904.653" cy="495.477" r="1" stroke="red" stroke-width="1" fill="red" />
<circle cx="516.292" cy="680.967" r="1" stroke="red" stroke-width="1" fill="red" />
<circle cx="986.642" cy="506.023" r="1" stroke="red" stroke-width="1" fill="red" />
<circle cx="266.145" cy="909.267" r="1" stroke="red" stroke-width="1" fill="red" />
<circle cx="947.764" cy="926.251" r="1" stroke="red" stroke-width="1" fill="red" />
<circle cx="500.707" cy="615.858" r="1" stroke="red" stroke-width="1" fill="red" />
<circle cx="277.082" cy="86.183" r="1" stroke="red" stroke-width="1" fill="red" />
<circle cx="529.747" cy="535.554" r="1" stroke="red" stroke-width="1" fill="red" />
<circle cx="940.980" cy="949.916" r="1" stroke="red" stroke-width="1" fill="red" />
<circle cx="761.514" cy="229.795" r="1" stroke="red" stroke-width="1" fill="red" />
<circle cx="827.817" cy="874.635" r="1" stroke="red" stroke-width="1" fill="red" />
<circle cx="15.868" cy="311.545" r="1" stroke="red" stroke-width="1" fill="red" />
<circle cx="868.247" cy="370.457" r="1" stroke="red" stroke-width="1" fill="red" />
<circle cx="736.225" cy="274.588" r="1" stroke="red" stroke-width="1" fill="red" />
<circle cx="999.458" cy="111.428" r="1" stroke="red" stroke-width="1" fill="red" />
<circle cx="233.195" cy="693.678" r="1" stroke="red" stroke-width="1" fill="red" />
<circle cx="351.015" cy="486.726" r="1" stroke="red" stroke-width="1" fill="red" />
<circle cx="591.114" cy="154.018" r="1" stroke="red" stroke-width="1" fill="red" />
<circle cx="412.081" cy="158.489" r="1" stroke="red" stroke-width="1" fill="red" />
<circle cx="269.317" cy="584.605" r="1" stroke="red" stroke-width="1" fill="red" />
</svg>
